<svg xmlns="http://www.w3.org/2000/svg" viewBox="0 0 278 278"><defs><style>.cls-1,.cls-18,.cls-19{fill:none;}.cls-1,.cls-18,.cls-19,.cls-2,.cls-3,.cls-6{stroke:#83705a;stroke-miterlimit:10;}.cls-1,.cls-2{stroke-width:0.31px;}.cls-2{fill:#de4a5f;}.cls-3{font-size:13.69px;letter-spacing:0.04em;}.cls-3,.cls-6{fill:#83705a;stroke-width:0.21px;font-family:BelovedSans-Bold, Beloved Sans;font-weight:700;}.cls-4{letter-spacing:0.11em;}.cls-5{letter-spacing:0.14em;}.cls-6{font-size:22.81px;}.cls-7{letter-spacing:-0.04em;}.cls-8{letter-spacing:-0.06em;}.cls-9{letter-spacing:-0.04em;}.cls-10{letter-spacing:0em;}.cls-11{letter-spacing:-0.02em;}.cls-12{letter-spacing:-0.12em;}.cls-13{letter-spacing:0.02em;}.cls-14{letter-spacing:-0.02em;}.cls-15{letter-spacing:0.02em;}.cls-16{letter-spacing:0.14em;}.cls-17{letter-spacing:-0.03em;}.cls-18{stroke-width:1.25px;}.cls-19{stroke-linecap:round;stroke-width:2.1px;stroke-dasharray:0.12 7.56;}</style></defs><g id="Logo_1" data-name="Logo 1"><path class="cls-1" d="M155.74,64,96,59.84,76,64.2l-4.7,3.07.42.33,1.44,0,0,2-.22.11,0,.49.16,0L71.28,107l3.41,4L207.07,98.13l-1.61-25.3s.37-.13,0-.29l-.1-1.28h1l0-.47-17.52-4.45L169.19,65"/><path class="cls-1" d="M170.79,101.61l-1.15-34.93h.1v-.46h-.49l-.38-9.81.18-.07v-.22h.26v-.27l.66-.09v-.49l.16-.1-3.88-.45-.35-9.2.18-.13.25-.08V45l.28-.15V44l-.66-.49a3.35,3.35,0,0,0-3.29-3.78l-.81-.12v-.45H161l.08.45s-3.28.55-3.63,2.62a3.93,3.93,0,0,0-.11,1.92l-.67.67.29.8.17,0,.19.38.32,0L158,55l-3.6.91.2.15,0,.35.57,0v.24l.35,0,.1.18.13,7.2"/><line class="cls-2" x1="205.36" y1="71.26" x2="169.73" y2="69.45"/><polygon class="cls-1" points="168.12 70.49 168.21 75.56 166.67 75.56 166.56 70.43 168.12 70.49"/><rect class="cls-1" x="166.32" y="75.66" width="2.65" height="0.36"/><line class="cls-1" x1="167.08" y1="70.45" x2="167.14" y2="75.56"/><line class="cls-1" x1="168.18" y1="73.63" x2="166.7" y2="73.63"/><line class="cls-1" x1="168.15" y1="72.02" x2="166.59" y2="71.96"/><polyline class="cls-1" points="168.56 75.64 168.43 70.25 168.12 70.49"/><polyline class="cls-1" points="166.56 70.43 166.56 70.19 168.48 70.19"/><polygon class="cls-1" points="164.96 70.49 165.04 75.56 163.5 75.56 163.4 70.43 164.96 70.49"/><rect class="cls-1" x="163.15" y="75.66" width="2.65" height="0.36"/><line class="cls-1" x1="163.91" y1="70.45" x2="163.98" y2="75.56"/><line class="cls-1" x1="165.01" y1="73.63" x2="163.53" y2="73.63"/><line class="cls-1" x1="164.98" y1="72.02" x2="163.43" y2="71.96"/><polyline class="cls-1" points="165.39 75.64 165.26 70.25 164.96 70.49"/><polyline class="cls-1" points="163.4 70.43 163.4 70.19 165.31 70.19"/><polygon class="cls-1" points="165.2 80.74 165.29 85.81 163.75 85.81 163.64 80.67 165.2 80.74"/><rect class="cls-1" x="163.4" y="85.9" width="2.65" height="0.36"/><line class="cls-1" x1="164.16" y1="80.69" x2="164.22" y2="85.81"/><line class="cls-1" x1="165.26" y1="83.87" x2="163.78" y2="83.87"/><line class="cls-1" x1="165.23" y1="82.26" x2="163.67" y2="82.21"/><polyline class="cls-1" points="165.64 85.88 165.51 80.5 165.2 80.74"/><polyline class="cls-1" points="163.64 80.67 163.64 80.43 165.56 80.44"/><polygon class="cls-1" points="168.37 80.74 168.46 85.81 166.91 85.81 166.81 80.67 168.37 80.74"/><rect class="cls-1" x="166.56" y="85.9" width="2.65" height="0.36"/><line class="cls-1" x1="167.32" y1="80.69" x2="167.39" y2="85.81"/><line class="cls-1" x1="168.42" y1="83.87" x2="166.94" y2="83.87"/><line class="cls-1" x1="168.39" y1="82.26" x2="166.84" y2="82.21"/><polyline class="cls-1" points="168.8 85.88 168.68 80.5 168.37 80.74"/><polyline class="cls-1" points="166.81 80.67 166.81 80.43 168.72 80.44"/><polygon class="cls-1" points="165.46 91.23 165.55 96.3 164.01 96.3 163.9 91.17 165.46 91.23"/><rect class="cls-1" x="163.66" y="96.4" width="2.65" height="0.36"/><line class="cls-1" x1="164.42" y1="91.19" x2="164.48" y2="96.3"/><line class="cls-1" x1="165.52" y1="94.37" x2="164.04" y2="94.37"/><line class="cls-1" x1="165.49" y1="92.76" x2="163.93" y2="92.71"/><polyline class="cls-1" points="165.9 96.38 165.77 91 165.46 91.23"/><polyline class="cls-1" points="163.9 91.17 163.9 90.93 165.82 90.94"/><polygon class="cls-1" points="168.63 91.11 168.71 96.18 167.17 96.18 167.07 91.05 168.63 91.11"/><rect class="cls-1" x="166.82" y="96.28" width="2.65" height="0.36"/><line class="cls-1" x1="167.58" y1="91.07" x2="167.65" y2="96.18"/><line class="cls-1" x1="168.68" y1="94.25" x2="167.2" y2="94.25"/><line class="cls-1" x1="168.65" y1="92.64" x2="167.1" y2="92.59"/><polyline class="cls-1" points="169.06 96.26 168.94 90.88 168.63 91.11"/><polyline class="cls-1" points="167.07 91.05 167.07 90.81 168.98 90.82"/><path class="cls-1" d="M172.62,80.43l-.1-4.77s-.16-1.19-1-1.19-1,1.36-1,1.36l.15,4.6Z"/><rect class="cls-1" x="170.47" y="80.43" width="2.34" height="0.34"/><line class="cls-1" x1="172.53" y1="76.34" x2="170.53" y2="76.34"/><line class="cls-1" x1="172.53" y1="75.92" x2="170.53" y2="75.92"/><line class="cls-1" x1="172.53" y1="75.52" x2="170.53" y2="75.52"/><line class="cls-1" x1="172.38" y1="75.12" x2="170.68" y2="75.12"/><line class="cls-1" x1="172.14" y1="74.72" x2="170.92" y2="74.72"/><path class="cls-1" d="M177.91,80.43l-.1-4.77s-.16-1.19-1-1.19-1,1.36-1,1.36l.15,4.6Z"/><rect class="cls-1" x="175.76" y="80.43" width="2.34" height="0.34"/><line class="cls-1" x1="177.82" y1="76.34" x2="175.82" y2="76.34"/><line class="cls-1" x1="177.82" y1="75.92" x2="175.82" y2="75.92"/><line class="cls-1" x1="177.82" y1="75.52" x2="175.82" y2="75.52"/><line class="cls-1" x1="177.67" y1="75.12" x2="175.97" y2="75.12"/><line class="cls-1" x1="177.43" y1="74.72" x2="176.21" y2="74.72"/><path class="cls-1" d="M148.72,80.84l-.12-5.76s-.19-1.42-1.23-1.42-1.19,1.64-1.19,1.64l.18,5.54Z"/><rect class="cls-1" x="146.13" y="80.84" width="2.81" height="0.41"/><line class="cls-1" x1="148.62" y1="75.91" x2="146.2" y2="75.91"/><line class="cls-1" x1="148.62" y1="75.4" x2="146.2" y2="75.4"/><line class="cls-1" x1="148.62" y1="74.92" x2="146.2" y2="74.92"/><line class="cls-1" x1="148.44" y1="74.44" x2="146.38" y2="74.44"/><line class="cls-1" x1="148.15" y1="73.96" x2="146.67" y2="73.96"/><path class="cls-1" d="M141.58,80.64l-.12-5.76s-.2-1.42-1.23-1.42S139,75.09,139,75.09l.18,5.55Z"/><rect class="cls-1" x="138.99" y="80.64" width="2.81" height="0.41"/><line class="cls-1" x1="141.48" y1="75.7" x2="139.06" y2="75.7"/><line class="cls-1" x1="141.48" y1="75.19" x2="139.06" y2="75.19"/><line class="cls-1" x1="141.48" y1="74.71" x2="139.06" y2="74.71"/><line class="cls-1" x1="141.3" y1="74.23" x2="139.24" y2="74.23"/><line class="cls-1" x1="141.01" y1="73.75" x2="139.53" y2="73.75"/><path class="cls-1" d="M133.82,80.64l-.11-5.76s-.2-1.42-1.23-1.42-1.19,1.63-1.19,1.63l.17,5.55Z"/><rect class="cls-1" x="131.24" y="80.64" width="2.81" height="0.41"/><line class="cls-1" x1="133.72" y1="75.7" x2="131.31" y2="75.7"/><line class="cls-1" x1="133.72" y1="75.19" x2="131.31" y2="75.19"/><line class="cls-1" x1="133.72" y1="74.71" x2="131.31" y2="74.71"/><line class="cls-1" x1="133.54" y1="74.23" x2="131.49" y2="74.23"/><line class="cls-1" x1="133.25" y1="73.75" x2="131.78" y2="73.75"/><path class="cls-1" d="M148.72,92.13l-.12-5.76S148.41,85,147.37,85s-1.19,1.64-1.19,1.64l.18,5.54Z"/><rect class="cls-1" x="146.13" y="92.13" width="2.81" height="0.41"/><line class="cls-1" x1="148.62" y1="87.2" x2="146.2" y2="87.2"/><line class="cls-1" x1="148.62" y1="86.69" x2="146.2" y2="86.69"/><line class="cls-1" x1="148.62" y1="86.21" x2="146.2" y2="86.21"/><line class="cls-1" x1="148.44" y1="85.73" x2="146.38" y2="85.73"/><line class="cls-1" x1="148.15" y1="85.25" x2="146.67" y2="85.25"/><path class="cls-1" d="M141.58,91.93l-.12-5.76s-.2-1.42-1.23-1.42S139,86.39,139,86.39l.18,5.54Z"/><rect class="cls-1" x="138.99" y="91.93" width="2.81" height="0.41"/><line class="cls-1" x1="141.48" y1="86.99" x2="139.06" y2="86.99"/><line class="cls-1" x1="141.48" y1="86.48" x2="139.06" y2="86.48"/><line class="cls-1" x1="141.48" y1="86" x2="139.06" y2="86"/><line class="cls-1" x1="141.3" y1="85.52" x2="139.24" y2="85.52"/><line class="cls-1" x1="141.01" y1="85.04" x2="139.53" y2="85.04"/><path class="cls-1" d="M133.82,91.93l-.11-5.76s-.2-1.42-1.23-1.42-1.19,1.64-1.19,1.64l.17,5.54Z"/><rect class="cls-1" x="131.24" y="91.93" width="2.81" height="0.41"/><line class="cls-1" x1="133.72" y1="86.99" x2="131.31" y2="86.99"/><line class="cls-1" x1="133.72" y1="86.48" x2="131.31" y2="86.48"/><line class="cls-1" x1="133.72" y1="86" x2="131.31" y2="86"/><line class="cls-1" x1="133.54" y1="85.52" x2="131.49" y2="85.52"/><line class="cls-1" x1="133.25" y1="85.04" x2="131.78" y2="85.04"/><path class="cls-1" d="M125.66,80.64l-.14-5.76s-.23-1.42-1.45-1.42-1.41,1.63-1.41,1.63l.21,5.55Z"/><rect class="cls-1" x="122.6" y="80.64" width="3.33" height="0.41"/><line class="cls-1" x1="125.54" y1="75.7" x2="122.68" y2="75.7"/><line class="cls-1" x1="125.54" y1="75.19" x2="122.68" y2="75.19"/><line class="cls-1" x1="125.54" y1="74.71" x2="122.68" y2="74.71"/><line class="cls-1" x1="125.33" y1="74.23" x2="122.9" y2="74.23"/><line class="cls-1" x1="124.98" y1="73.75" x2="123.24" y2="73.75"/><path class="cls-1" d="M125.66,92.23l-.14-5.75s-.23-1.43-1.45-1.43-1.41,1.64-1.41,1.64l.21,5.54Z"/><rect class="cls-1" x="122.6" y="92.23" width="3.33" height="0.41"/><line class="cls-1" x1="125.54" y1="87.3" x2="122.68" y2="87.3"/><line class="cls-1" x1="125.54" y1="86.79" x2="122.68" y2="86.79"/><line class="cls-1" x1="125.54" y1="86.31" x2="122.68" y2="86.31"/><line class="cls-1" x1="125.33" y1="85.83" x2="122.9" y2="85.83"/><line class="cls-1" x1="124.98" y1="85.35" x2="123.24" y2="85.35"/><path class="cls-1" d="M116.88,80.76l-.16-6.31s-.25-1.56-1.59-1.56-1.54,1.79-1.54,1.79l.23,6.08Z"/><rect class="cls-1" x="113.53" y="80.76" width="3.65" height="0.45"/><line class="cls-1" x1="116.75" y1="75.35" x2="113.62" y2="75.35"/><line class="cls-1" x1="116.8" y1="75.99" x2="113.67" y2="75.99"/><line class="cls-1" x1="116.75" y1="76.6" x2="113.62" y2="76.6"/><line class="cls-1" x1="116.72" y1="77.43" x2="113.59" y2="77.43"/><line class="cls-1" x1="116.8" y1="78.13" x2="113.67" y2="78.13"/><line class="cls-1" x1="116.75" y1="74.79" x2="113.62" y2="74.79"/><line class="cls-1" x1="116.75" y1="74.26" x2="113.62" y2="74.26"/><line class="cls-1" x1="116.51" y1="73.74" x2="113.85" y2="73.74"/><line class="cls-1" x1="116.14" y1="73.21" x2="114.23" y2="73.21"/><path class="cls-1" d="M107.12,80.76,107,74.45s-.26-1.56-1.6-1.56-1.54,1.79-1.54,1.79l.23,6.08Z"/><rect class="cls-1" x="103.77" y="80.76" width="3.65" height="0.45"/><line class="cls-1" x1="106.99" y1="75.35" x2="103.86" y2="75.35"/><line class="cls-1" x1="106.99" y1="74.79" x2="103.86" y2="74.79"/><line class="cls-1" x1="106.99" y1="74.26" x2="103.86" y2="74.26"/><line class="cls-1" x1="106.75" y1="73.74" x2="104.09" y2="73.74"/><line class="cls-1" x1="106.38" y1="73.21" x2="104.47" y2="73.21"/><path class="cls-1" d="M107.08,93.61l-.16-6.86s-.28-1.7-1.73-1.7-1.68,2-1.68,2l.25,6.6Z"/><rect class="cls-1" x="103.44" y="93.61" width="3.96" height="0.49"/><line class="cls-1" x1="106.94" y1="87.73" x2="103.54" y2="87.73"/><line class="cls-1" x1="106.94" y1="88.49" x2="103.54" y2="88.49"/><line class="cls-1" x1="106.94" y1="89.33" x2="103.54" y2="89.33"/><line class="cls-1" x1="106.94" y1="90.14" x2="103.54" y2="90.14"/><line class="cls-1" x1="107" y1="91" x2="103.59" y2="91"/><line class="cls-1" x1="107" y1="91.83" x2="103.59" y2="91.83"/><line class="cls-1" x1="107.08" y1="92.51" x2="103.68" y2="92.51"/><line class="cls-1" x1="107.08" y1="93.33" x2="103.68" y2="93.33"/><line class="cls-1" x1="106.94" y1="87.12" x2="103.54" y2="87.12"/><line class="cls-1" x1="106.94" y1="86.55" x2="103.54" y2="86.55"/><line class="cls-1" x1="106.69" y1="85.98" x2="103.79" y2="85.98"/><line class="cls-1" x1="106.28" y1="85.41" x2="104.2" y2="85.41"/><path class="cls-1" d="M116.89,93.61l-.16-6.86s-.28-1.7-1.73-1.7-1.68,2-1.68,2l.25,6.6Z"/><rect class="cls-1" x="113.25" y="93.61" width="3.96" height="0.49"/><line class="cls-1" x1="116.75" y1="87.73" x2="113.35" y2="87.73"/><line class="cls-1" x1="116.75" y1="87.12" x2="113.35" y2="87.12"/><line class="cls-1" x1="116.75" y1="86.55" x2="113.35" y2="86.55"/><line class="cls-1" x1="116.5" y1="85.98" x2="113.6" y2="85.98"/><line class="cls-1" x1="116.09" y1="85.41" x2="114.01" y2="85.41"/><path class="cls-1" d="M97.28,81.35,97.11,74s-.3-1.8-1.85-1.8-1.79,2.08-1.79,2.08l.27,7Z"/><rect class="cls-1" x="93.4" y="81.35" width="4.23" height="0.52"/><line class="cls-1" x1="97.13" y1="75.08" x2="93.5" y2="75.08"/><line class="cls-1" x1="97.13" y1="74.43" x2="93.5" y2="74.43"/><line class="cls-1" x1="97.13" y1="73.82" x2="93.5" y2="73.82"/><line class="cls-1" x1="96.86" y1="73.21" x2="93.77" y2="73.21"/><line class="cls-1" x1="96.42" y1="72.6" x2="94.21" y2="72.6"/><path class="cls-1" d="M86.22,81.35,86,74s-.29-1.8-1.84-1.8-1.79,2.08-1.79,2.08l.26,7Z"/><rect class="cls-1" x="82.33" y="81.35" width="4.23" height="0.52"/><line class="cls-1" x1="86.07" y1="75.08" x2="82.44" y2="75.08"/><line class="cls-1" x1="86.07" y1="74.43" x2="82.44" y2="74.43"/><line class="cls-1" x1="86.07" y1="73.82" x2="82.44" y2="73.82"/><line class="cls-1" x1="85.8" y1="73.21" x2="82.71" y2="73.21"/><line class="cls-1" x1="85.36" y1="72.6" x2="83.14" y2="72.6"/><path class="cls-1" d="M85.72,94.54l-.17-7.32s-.3-1.8-1.85-1.8-1.79,2.08-1.79,2.08l.27,7Z"/><rect class="cls-1" x="81.84" y="94.54" width="4.23" height="0.52"/><line class="cls-1" x1="85.57" y1="88.27" x2="81.94" y2="88.27"/><line class="cls-1" x1="85.57" y1="87.62" x2="81.94" y2="87.62"/><line class="cls-1" x1="85.57" y1="87.01" x2="81.94" y2="87.01"/><line class="cls-1" x1="85.3" y1="86.4" x2="82.21" y2="86.4"/><line class="cls-1" x1="84.87" y1="85.79" x2="82.65" y2="85.79"/><path class="cls-1" d="M97.09,94.54l-.18-7.32s-.29-1.8-1.84-1.8-1.79,2.08-1.79,2.08l.26,7Z"/><rect class="cls-1" x="93.2" y="94.54" width="4.23" height="0.52"/><line class="cls-1" x1="96.94" y1="88.27" x2="93.31" y2="88.27"/><line class="cls-1" x1="96.94" y1="87.62" x2="93.31" y2="87.62"/><line class="cls-1" x1="96.94" y1="87.01" x2="93.31" y2="87.01"/><line class="cls-1" x1="96.67" y1="86.4" x2="93.58" y2="86.4"/><line class="cls-1" x1="96.23" y1="85.79" x2="94.01" y2="85.79"/><path class="cls-1" d="M183,80.43l-.1-4.77s-.16-1.19-1-1.19-1,1.36-1,1.36l.15,4.6Z"/><rect class="cls-1" x="180.82" y="80.43" width="2.34" height="0.34"/><line class="cls-1" x1="182.89" y1="76.34" x2="180.88" y2="76.34"/><line class="cls-1" x1="182.89" y1="75.92" x2="180.88" y2="75.92"/><line class="cls-1" x1="182.89" y1="75.52" x2="180.88" y2="75.52"/><line class="cls-1" x1="182.74" y1="75.12" x2="181.03" y2="75.12"/><line class="cls-1" x1="182.5" y1="74.72" x2="181.27" y2="74.72"/><path class="cls-1" d="M187.49,80.38l-.1-4.54s-.15-1.13-1-1.13-.93,1.3-.93,1.3l.13,4.37Z"/><rect class="cls-1" x="185.45" y="80.38" width="2.22" height="0.32"/><line class="cls-1" x1="187.41" y1="76.49" x2="185.5" y2="76.49"/><line class="cls-1" x1="187.41" y1="76.08" x2="185.5" y2="76.08"/><line class="cls-1" x1="187.41" y1="75.71" x2="185.5" y2="75.71"/><line class="cls-1" x1="187.27" y1="75.33" x2="185.64" y2="75.33"/><line class="cls-1" x1="187.04" y1="74.95" x2="185.87" y2="74.95"/><path class="cls-1" d="M192,79.91l-.07-3.74s-.13-.92-.8-.92-.78,1.06-.78,1.06l.12,3.6Z"/><rect class="cls-1" x="190.3" y="79.91" width="1.83" height="0.26"/><line class="cls-1" x1="191.92" y1="76.7" x2="190.35" y2="76.7"/><line class="cls-1" x1="191.92" y1="76.37" x2="190.35" y2="76.37"/><line class="cls-1" x1="191.92" y1="76.06" x2="190.35" y2="76.06"/><line class="cls-1" x1="191.8" y1="75.75" x2="190.46" y2="75.75"/><line class="cls-1" x1="191.61" y1="75.44" x2="190.65" y2="75.44"/><path class="cls-1" d="M196.4,79.77,196.33,76s-.13-.93-.8-.93-.77,1.07-.77,1.07l.11,3.59Z"/><rect class="cls-1" x="194.72" y="79.77" width="1.83" height="0.26"/><line class="cls-1" x1="196.34" y1="76.57" x2="194.77" y2="76.57"/><line class="cls-1" x1="196.34" y1="76.24" x2="194.77" y2="76.24"/><line class="cls-1" x1="196.34" y1="75.93" x2="194.77" y2="75.93"/><line class="cls-1" x1="196.22" y1="75.62" x2="194.89" y2="75.62"/><line class="cls-1" x1="196.03" y1="75.31" x2="195.07" y2="75.31"/><path class="cls-1" d="M200.49,79.75,200.42,76s-.13-.93-.8-.93-.77,1.07-.77,1.07l.11,3.6Z"/><rect class="cls-1" x="198.81" y="79.75" width="1.83" height="0.26"/><line class="cls-1" x1="200.43" y1="76.54" x2="198.86" y2="76.54"/><line class="cls-1" x1="200.43" y1="76.21" x2="198.86" y2="76.21"/><line class="cls-1" x1="200.43" y1="75.9" x2="198.86" y2="75.9"/><line class="cls-1" x1="200.31" y1="75.59" x2="198.98" y2="75.59"/><line class="cls-1" x1="200.12" y1="75.28" x2="199.16" y2="75.28"/><path class="cls-1" d="M204.34,79.77,204.26,76s-.12-.93-.79-.93-.78,1.07-.78,1.07l.12,3.59Z"/><rect class="cls-1" x="202.66" y="79.77" width="1.83" height="0.26"/><line class="cls-1" x1="204.27" y1="76.57" x2="202.71" y2="76.57"/><line class="cls-1" x1="204.27" y1="76.24" x2="202.71" y2="76.24"/><line class="cls-1" x1="204.27" y1="75.93" x2="202.71" y2="75.93"/><line class="cls-1" x1="204.16" y1="75.62" x2="202.82" y2="75.62"/><line class="cls-1" x1="203.97" y1="75.31" x2="203.01" y2="75.31"/><path class="cls-1" d="M188,88.9l-.1-4.54s-.15-1.13-1-1.13-.93,1.3-.93,1.3l.13,4.37Z"/><rect class="cls-1" x="185.93" y="88.9" width="2.22" height="0.32"/><line class="cls-1" x1="187.89" y1="85.01" x2="185.98" y2="85.01"/><line class="cls-1" x1="187.89" y1="84.6" x2="185.98" y2="84.6"/><line class="cls-1" x1="187.89" y1="84.23" x2="185.98" y2="84.23"/><line class="cls-1" x1="187.75" y1="83.85" x2="186.12" y2="83.85"/><line class="cls-1" x1="187.52" y1="83.47" x2="186.35" y2="83.47"/><path class="cls-1" d="M192.35,88.27l-.08-3.74s-.13-.93-.8-.93-.77,1.07-.77,1.07l.11,3.6Z"/><rect class="cls-1" x="190.67" y="88.27" width="1.83" height="0.26"/><line class="cls-1" x1="192.28" y1="85.06" x2="190.71" y2="85.06"/><line class="cls-1" x1="192.28" y1="84.73" x2="190.71" y2="84.73"/><line class="cls-1" x1="192.28" y1="84.42" x2="190.71" y2="84.42"/><line class="cls-1" x1="192.16" y1="84.11" x2="190.83" y2="84.11"/><line class="cls-1" x1="191.98" y1="83.8" x2="191.02" y2="83.8"/><path class="cls-1" d="M196.92,88.13l-.08-3.73s-.12-.93-.8-.93-.77,1.07-.77,1.07l.12,3.59Z"/><rect class="cls-1" x="195.24" y="88.13" width="1.83" height="0.26"/><line class="cls-1" x1="196.85" y1="84.93" x2="195.28" y2="84.93"/><line class="cls-1" x1="196.85" y1="84.6" x2="195.28" y2="84.6"/><line class="cls-1" x1="196.85" y1="84.29" x2="195.28" y2="84.29"/><line class="cls-1" x1="196.74" y1="83.98" x2="195.4" y2="83.98"/><line class="cls-1" x1="196.55" y1="83.66" x2="195.59" y2="83.66"/><path class="cls-1" d="M200.89,88l-.08-3.74s-.13-.92-.8-.92-.77,1.06-.77,1.06l.11,3.6Z"/><rect class="cls-1" x="199.21" y="88" width="1.83" height="0.26"/><line class="cls-1" x1="200.82" y1="84.8" x2="199.25" y2="84.8"/><line class="cls-1" x1="200.82" y1="84.47" x2="199.25" y2="84.47"/><line class="cls-1" x1="200.82" y1="84.15" x2="199.25" y2="84.15"/><line class="cls-1" x1="200.71" y1="83.84" x2="199.37" y2="83.84"/><line class="cls-1" x1="200.52" y1="83.53" x2="199.56" y2="83.53"/><path class="cls-1" d="M204.7,87.71,204.63,84s-.13-.92-.8-.92-.77,1.06-.77,1.06l.11,3.6Z"/><rect class="cls-1" x="203.02" y="87.71" width="1.83" height="0.26"/><line class="cls-1" x1="204.64" y1="84.5" x2="203.07" y2="84.5"/><line class="cls-1" x1="204.64" y1="84.17" x2="203.07" y2="84.17"/><line class="cls-1" x1="204.64" y1="83.86" x2="203.07" y2="83.86"/><line class="cls-1" x1="204.52" y1="83.55" x2="203.19" y2="83.55"/><line class="cls-1" x1="204.33" y1="83.24" x2="203.38" y2="83.24"/><path class="cls-1" d="M183.47,89.21l-.09-4.78s-.16-1.18-1-1.18-1,1.36-1,1.36l.15,4.6Z"/><rect class="cls-1" x="181.33" y="89.21" width="2.34" height="0.34"/><line class="cls-1" x1="183.39" y1="85.11" x2="181.39" y2="85.11"/><line class="cls-1" x1="183.39" y1="84.69" x2="181.39" y2="84.69"/><line class="cls-1" x1="183.39" y1="84.29" x2="181.39" y2="84.29"/><line class="cls-1" x1="183.24" y1="83.89" x2="181.53" y2="83.89"/><line class="cls-1" x1="183" y1="83.5" x2="181.78" y2="83.5"/><path class="cls-1" d="M178.2,89.45l-.1-4.77s-.16-1.18-1-1.18-1,1.36-1,1.36l.14,4.59Z"/><rect class="cls-1" x="176.05" y="89.45" width="2.34" height="0.34"/><line class="cls-1" x1="178.12" y1="85.36" x2="176.11" y2="85.36"/><line class="cls-1" x1="178.12" y1="84.94" x2="176.11" y2="84.94"/><line class="cls-1" x1="178.12" y1="84.54" x2="176.11" y2="84.54"/><line class="cls-1" x1="177.97" y1="84.14" x2="176.26" y2="84.14"/><line class="cls-1" x1="177.73" y1="83.74" x2="176.5" y2="83.74"/><path class="cls-1" d="M173,89.7l-.1-4.78s-.16-1.18-1-1.18-1,1.36-1,1.36l.15,4.6Z"/><rect class="cls-1" x="170.86" y="89.7" width="2.34" height="0.34"/><line class="cls-1" x1="172.93" y1="85.61" x2="170.92" y2="85.61"/><line class="cls-1" x1="172.93" y1="85.18" x2="170.92" y2="85.18"/><line class="cls-1" x1="172.93" y1="84.78" x2="170.92" y2="84.78"/><line class="cls-1" x1="172.78" y1="84.39" x2="171.07" y2="84.39"/><line class="cls-1" x1="172.54" y1="83.99" x2="171.31" y2="83.99"/><path class="cls-1" d="M173.3,100.56l-.09-4.78s-.17-1.18-1-1.18-1,1.36-1,1.36l.14,4.6Z"/><rect class="cls-1" x="171.16" y="100.56" width="2.34" height="0.34"/><line class="cls-1" x1="173.22" y1="96.47" x2="171.21" y2="96.47"/><line class="cls-1" x1="173.22" y1="96.04" x2="171.21" y2="96.04"/><line class="cls-1" x1="173.22" y1="95.64" x2="171.21" y2="95.64"/><line class="cls-1" x1="173.07" y1="95.25" x2="171.36" y2="95.25"/><line class="cls-1" x1="172.83" y1="94.85" x2="171.6" y2="94.85"/><path class="cls-1" d="M178.7,99.89l-.09-4.77s-.16-1.18-1-1.18-1,1.36-1,1.36l.15,4.59Z"/><rect class="cls-1" x="176.56" y="99.89" width="2.34" height="0.34"/><line class="cls-1" x1="178.62" y1="95.8" x2="176.62" y2="95.8"/><line class="cls-1" x1="178.62" y1="95.38" x2="176.62" y2="95.38"/><line class="cls-1" x1="178.62" y1="94.98" x2="176.62" y2="94.98"/><line class="cls-1" x1="178.47" y1="94.58" x2="176.77" y2="94.58"/><line class="cls-1" x1="178.23" y1="94.18" x2="177.01" y2="94.18"/><path class="cls-1" d="M161.33,65.93l-3.51-4.12-4.06,4.12S159.33,65.26,161.33,65.93Z"/><path class="cls-1" d="M160.94,66.82l.84,27.76s-6.3.52-9-.4L152.59,69l.61-.5-.11-1.67S159.27,66.21,160.94,66.82Z"/><polyline class="cls-1" points="155.74 64.02 151.39 65.2 152.2 66.21 149.69 66.55 152.59 67.99 75.98 64.2"/><polygon class="cls-1" points="156.78 67.45 156.78 70.45 154.62 70.45 154.62 67.57 156.78 67.45"/><rect class="cls-1" x="155.92" y="67.82" width="0.6" height="2.22"/><polygon class="cls-1" points="155.57 67.82 155.57 70.11 154.95 70.11 154.95 67.93 155.57 67.82"/><polygon class="cls-1" points="156.78 74.78 156.78 79.21 154.62 79.21 154.62 74.96 156.78 74.78"/><rect class="cls-1" x="155.92" y="75.34" width="0.6" height="3.27"/><polygon class="cls-1" points="155.57 75.34 155.57 78.71 154.95 78.71 154.95 75.49 155.57 75.34"/><polygon class="cls-1" points="156.78 85.36 156.78 89.79 154.62 89.79 154.71 85.25 156.78 85.36"/><polygon class="cls-1" points="156.53 85.78 156.53 89.38 155.92 89.38 155.92 85.73 156.53 85.78"/><rect class="cls-1" x="154.95" y="85.73" width="0.62" height="3.56"/><polygon class="cls-1" points="149.94 68.78 149.94 70.45 144.88 70.31 144.88 68.64 149.94 68.78"/><polyline class="cls-1" points="150.41 70.85 128.71 70.11 128.45 70.11 99.93 68.96 77.49 67.99 72.9 70.22"/><path class="cls-1" d="M161.78,93.75a32.75,32.75,0,0,1-9-.18"/><path class="cls-1" d="M161.43,83.19a81.81,81.81,0,0,1-8.72-.12"/><path class="cls-1" d="M161.43,83.74a45.72,45.72,0,0,1-8.71-.24"/><polyline class="cls-1" points="168.86 56.41 162.2 55.49 161.09 55.49 155.61 56.82"/><polyline class="cls-1" points="169.05 56.12 162.23 55.18 161.06 55.18 155.51 56.64"/><polyline class="cls-1" points="169.31 55.85 161.62 54.8 155.16 56.38"/><line class="cls-1" x1="162.2" y1="55.49" x2="162.49" y2="65.79"/><polyline class="cls-1" points="161.09 55.49 161.51 65.71 161.33 65.93 161.95 65.8"/><polyline class="cls-1" points="169.24 66.22 161.95 65.8 161.95 66.22 169.64 66.68"/><line class="cls-1" x1="161.95" y1="66.22" x2="162.77" y2="102.43"/><polyline class="cls-1" points="152.61 71.18 150.41 71.18 150.41 71.64 152.59 71.64"/><polygon class="cls-1" points="152.1 68.96 152.1 71.18 150.41 71.18 150.41 68.93 152.1 68.96"/><polygon class="cls-1" points="142.92 68.64 142.92 70.11 137.7 70.04 137.7 68.31 142.92 68.64"/><polyline class="cls-1" points="137.7 68.31 137.41 68.23 137.41 67.99 143.13 68.31 143.13 68.57 142.92 68.64"/><polygon class="cls-1" points="135.19 68.21 135.09 69.94 129.7 69.72 129.7 67.99 135.19 68.21"/><polyline class="cls-1" points="129.7 67.99 129.44 67.81 129.44 67.62 135.59 67.99 135.59 68.15 135.19 68.21"/><line class="cls-1" x1="133.65" y1="68.21" x2="133.62" y2="69.88"/><line class="cls-1" x1="131.28" y1="68.05" x2="131.28" y2="69.82"/><line class="cls-1" x1="141.48" y1="68.55" x2="141.48" y2="70.09"/><line class="cls-1" x1="139.84" y1="68.44" x2="139.84" y2="70.07"/><line class="cls-1" x1="148.43" y1="68.74" x2="148.43" y2="70.4"/><line class="cls-1" x1="147.67" y1="68.72" x2="147.67" y2="70.38"/><line class="cls-1" x1="146.89" y1="68.72" x2="146.89" y2="70.36"/><polygon class="cls-1" points="126.55 67.75 126.55 69.52 122.14 69.29 122.14 67.57 126.55 67.75"/><polygon class="cls-1" points="127.41 67.46 121.05 67.3 121.05 67.53 124.85 67.67 127.41 67.77 127.41 67.46"/><line class="cls-1" x1="124.87" y1="69.4" x2="124.85" y2="67.67"/><line class="cls-1" x1="123.93" y1="69.38" x2="123.93" y2="67.64"/><line class="cls-1" x1="115.86" y1="69.25" x2="115.86" y2="67.19"/><line class="cls-1" x1="113.36" y1="67.06" x2="113.3" y2="69.06"/><polyline class="cls-1" points="111.5 66.97 111.05 66.95 111.05 66.63 117.99 67.03 117.99 67.3 111.5 66.97 111.5 68.98 115.97 69.18 117.69 69.25 117.69 67.3"/><line class="cls-1" x1="107.18" y1="68.79" x2="107.21" y2="66.76"/><polyline class="cls-1" points="103.98 66.6 103.91 68.64 77.34 67.78 77.46 64.85 73.14 67.64 71.7 67.6 76.22 64.8 153.18 68.22"/><line class="cls-1" x1="74.69" y1="111" x2="77.49" y2="67.99"/><path class="cls-1" d="M76.17,80.86l.27-6.34s.08-2.36-.19-2.29-.38,3-.38,3l-.31,5.62Z"/><path class="cls-1" d="M74.74,80.78l.26-6s.09-2.24-.18-2.17-.39,2.86-.39,2.86l-.3,5.35Z"/><path class="cls-1" d="M73.51,80.86l.26-5.67s.09-2.11-.18-2-.39,2.69-.39,2.69l-.3,5Z"/><path class="cls-1" d="M74,108.76l.33-6.48s0-1.73-.33-1.77-.42,2.94-.42,2.94l-.27,4.8Z"/><path class="cls-1" d="M73,107.59l.37-5.73s.16-1.86-.19-2-.32,2.84-.32,2.84l-.24,4.58Z"/><path class="cls-1" d="M72.2,106.53l.4-6s.09-1.77-.2-1.86-.42,3.41-.42,3.41L71.76,106Z"/><path class="cls-1" d="M75.45,93.9l.38-6.16s.2-2.32-.13-2.32-.51,4.3-.51,4.3L75,94.28l.43.52Z"/><path class="cls-1" d="M74,93.62l.42-6s.13-2.68-.21-2.72-.39,3-.39,3l-.29,5.35Z"/><path class="cls-1" d="M72.61,92.88,73,87s.13-2-.09-2.11-.33,1.81-.33,1.81l-.27,5.75Z"/><path class="cls-1" d="M85.15,110v-6.63a1.63,1.63,0,0,0-1.92-1.48c-1.79.18-2.11,2.33-2.11,2.33v6.17Z"/><path class="cls-1" d="M96.23,108.9v-6.14s0-1.84-1.59-1.66-2,1.41-2.06,2.61-.17,5.56-.17,5.56Z"/><path class="cls-1" d="M106.53,107.9l.16-6.05s.16-1.69-1.45-1.65a2.41,2.41,0,0,0-2.15,2.61c0,1-.07,5.43-.07,5.43Z"/><path class="cls-1" d="M116.34,107l.16-5.31s.09-2.07-1.45-2-1.74,1.62-1.8,2.69-.13,5-.13,5Z"/><path class="cls-1" d="M125.72,106l-.18-6.1s-.08-1.48-1.7-1-1.48,2.7-1.48,4,0,3.42,0,3.42Z"/><polyline class="cls-1" points="166.61 44.02 164.73 42.63 163.09 43.53 160.05 43.73 159.99 43.72 158.16 43.21 156.7 44.84 157.5 44.58 157.77 44.5 159.63 43.89 158.32 43.73 157.59 44.53"/><polyline class="cls-1" points="166.6 44.84 162.95 44.2 159.99 44.36 156.99 45.64"/><path class="cls-1" d="M161.85,39.63s1.15.64.85,3.93"/><path class="cls-1" d="M161.11,39.63s-1.45.48-1.06,4.1"/><polygon class="cls-1" points="165.52 43.8 164.62 43.09 163.88 43.56 165.52 43.8"/><path class="cls-1" d="M165.77,53.28,165.52,46s-.48-1.06-1.2-1-1.1.48-1.08,1.63.21,6.39.21,6.39Z"/><path class="cls-1" d="M160.21,53l-.38-7s-.32-1.12-1.08-.65A2.71,2.71,0,0,0,158,47.8c.1.69.36,5.8.36,5.8Z"/><line class="cls-1" x1="165.76" y1="52.91" x2="163.43" y2="52.62"/><line class="cls-1" x1="165.76" y1="52.52" x2="163.43" y2="52.23"/><line class="cls-1" x1="165.76" y1="52.23" x2="163.43" y2="51.93"/><line class="cls-1" x1="165.76" y1="51.85" x2="163.43" y2="51.55"/><line class="cls-1" x1="165.76" y1="51.55" x2="163.43" y2="51.26"/><line class="cls-1" x1="165.76" y1="51.15" x2="163.43" y2="50.86"/><line class="cls-1" x1="165.76" y1="50.66" x2="163.43" y2="50.36"/><line class="cls-1" x1="165.67" y1="50.27" x2="163.34" y2="49.98"/><line class="cls-1" x1="165.63" y1="49.89" x2="163.31" y2="49.59"/><line class="cls-1" x1="165.63" y1="49.51" x2="163.31" y2="49.21"/><line class="cls-1" x1="165.63" y1="49.13" x2="163.31" y2="48.83"/><line class="cls-1" x1="165.63" y1="48.74" x2="163.31" y2="48.45"/><line class="cls-1" x1="165.63" y1="48.36" x2="163.31" y2="48.06"/><line class="cls-1" x1="165.63" y1="47.94" x2="163.31" y2="47.65"/><line class="cls-1" x1="165.56" y1="47.56" x2="163.24" y2="47.27"/><line class="cls-1" x1="165.56" y1="47.16" x2="163.24" y2="46.87"/><line class="cls-1" x1="165.56" y1="46.79" x2="163.24" y2="46.5"/><line class="cls-1" x1="165.56" y1="46.41" x2="163.24" y2="46.11"/><line class="cls-1" x1="165.56" y1="46.07" x2="163.24" y2="45.78"/><line class="cls-1" x1="165.36" y1="45.64" x2="163.44" y2="45.34"/><line class="cls-1" x1="160.21" y1="52.62" x2="158.31" y2="53.16"/><line class="cls-1" x1="160.21" y1="52.25" x2="158.31" y2="52.8"/><line class="cls-1" x1="160.21" y1="51.85" x2="158.31" y2="52.39"/><line class="cls-1" x1="160.12" y1="51.43" x2="158.23" y2="51.97"/><line class="cls-1" x1="160.12" y1="50.95" x2="158.23" y2="51.5"/><line class="cls-1" x1="160.09" y1="50.61" x2="158.2" y2="51.15"/><line class="cls-1" x1="160.09" y1="50.25" x2="158.2" y2="50.79"/><line class="cls-1" x1="160.09" y1="49.84" x2="158.2" y2="50.39"/><line class="cls-1" x1="160.03" y1="49.41" x2="158.13" y2="49.96"/><line class="cls-1" x1="159.99" y1="49.03" x2="158.09" y2="49.58"/><line class="cls-1" x1="159.95" y1="48.66" x2="158.06" y2="49.21"/><line class="cls-1" x1="159.92" y1="48.29" x2="158.02" y2="48.84"/><line class="cls-1" x1="159.92" y1="47.86" x2="158.02" y2="48.41"/><line class="cls-1" x1="159.92" y1="47.51" x2="158.02" y2="48.05"/><line class="cls-1" x1="159.92" y1="47.02" x2="158.02" y2="47.57"/><line class="cls-1" x1="159.84" y1="46.68" x2="157.95" y2="47.22"/><line class="cls-1" x1="159.84" y1="46.3" x2="157.95" y2="46.84"/><line class="cls-1" x1="159.84" y1="45.93" x2="158.06" y2="46.47"/><line class="cls-1" x1="159.7" y1="45.54" x2="158.13" y2="46.08"/><polyline class="cls-1" points="162.95 44.2 163.06 52.8 160.55 52.91 159.99 44.36"/><polygon class="cls-1" points="165.94 54.8 165.94 53.6 163.44 53.36 163.52 54.46 165.94 54.8"/><polyline class="cls-1" points="160.12 54.55 160.12 53.5 158.31 54.02 158.31 54.98 161.53 54.24 163.24 54.46 163.06 53.28 160.46 53.36 160.46 54.46"/><line class="cls-1" x1="161.62" y1="54.8" x2="161.53" y2="54.24"/><polyline class="cls-1" points="100.22 65.86 99.67 67.53 98.5 108.68"/><polyline class="cls-1" points="128.93 67.14 128.4 68.64 128.27 105.79"/><path class="cls-1" d="M161.67,95.45a27.46,27.46,0,0,1-8.86-.4"/><line class="cls-1" x1="154.66" y1="103.22" x2="154.4" y2="95.45"/><line class="cls-1" x1="159.36" y1="95.64" x2="159.55" y2="102.75"/><path class="cls-1" d="M134,105.23l.1-5.73S134,98,132.64,98.11l-.23,0c-1.12.33-1.33,2.07-1.33,2.07l-.23,5.31,2.69-.27Z"/><path class="cls-1" d="M141.8,104.47V98.82s-.43-1.47-1.49-1.26-1.14,1.39-1.14,2.49-.06,4.68-.06,4.68Z"/><path class="cls-1" d="M149,103.78V98.25s0-1.57-1.18-1.49-1.35,2-1.32,2.44,0,4.82,0,4.82Z"/><path class="cls-1" d="M183.66,100.35V94.58a.91.91,0,0,0-.9-.86c-.85,0-1,1.28-1,1.85s0,5,0,5l1.51-.12Z"/><path class="cls-1" d="M183.3,100.44l-.06-5.56s.14-.9-.48-1.16"/><path class="cls-1" d="M188.15,100V94.58s-.06-1.22-.91-1.08-.7,1.68-.7,1.68l.17,4.93Z"/><path class="cls-1" d="M192.86,98.26V94.58S193,93,191.93,93s-.88,2-.88,2l0,3.46Z"/><path class="cls-1" d="M197.08,99.1l-.16-5.38s0-1.21-.77-1.1-.67,1.44-.68,1.69,0,4.94,0,4.94Z"/><path class="cls-1" d="M201.47,98.68l-.16-5.37s0-1.22-.77-1.11-.67,1.44-.68,1.7,0,4.94,0,4.94Z"/><path class="cls-1" d="M205.34,96.9,205,93.3s-.11-1.55-.85-1.47-.53,1.89-.53,1.89l.24,3.32Z"/><line class="cls-1" x1="203.25" y1="76.57" x2="203.25" y2="79.77"/><polyline class="cls-1" points="203.79 76.64 203.79 77.69 203.79 79.75"/><line class="cls-1" x1="202.74" y1="77.67" x2="203.79" y2="77.69"/><line class="cls-1" x1="202.77" y1="78.76" x2="203.74" y2="78.76"/><line class="cls-1" x1="199.99" y1="76.64" x2="200.05" y2="79.75"/><line class="cls-1" x1="199.36" y1="76.57" x2="199.36" y2="79.77"/><line class="cls-1" x1="198.93" y1="78.83" x2="200.03" y2="78.83"/><line class="cls-1" x1="198.93" y1="77.58" x2="199.99" y2="77.58"/><line class="cls-1" x1="195.64" y1="76.64" x2="195.71" y2="79.77"/><line class="cls-1" x1="195.07" y1="76.64" x2="195.16" y2="79.75"/><line class="cls-1" x1="195.64" y1="78.76" x2="194.89" y2="78.76"/><line class="cls-1" x1="195.64" y1="77.5" x2="194.76" y2="77.5"/><rect class="cls-1" x="150.49" y="75.83" width="1.61" height="3.67"/><rect class="cls-1" x="150.29" y="79.5" width="2.08" height="0.45"/><polygon class="cls-1" points="152.28 86 152.28 90.07 150.69 90.07 150.58 86 152.28 86"/><polygon class="cls-1" points="152.59 90.14 150.38 90.14 150.38 90.85 152.5 90.76 152.59 90.14"/><polyline class="cls-1" points="158.38 102.86 158.26 98.98 157.11 98.98 157.24 102.97"/><path class="cls-1" d="M154.4,96.46s-1.22.22-1.2,1.91,0,5,0,5"/><line class="cls-1" x1="205.46" y1="72.54" x2="169.8" y2="71.52"/><line class="cls-1" x1="205.46" y1="72.83" x2="169.81" y2="71.99"/><line class="cls-1" x1="176.39" y1="76.34" x2="176.5" y2="80.38"/><line class="cls-1" x1="177.84" y1="77.21" x2="175.91" y2="77.21"/><line class="cls-1" x1="172.95" y1="86.87" x2="170.92" y2="86.93"/><line class="cls-1" x1="172.95" y1="86.46" x2="170.92" y2="86.52"/><line class="cls-1" x1="172.95" y1="85.95" x2="170.92" y2="86"/><line class="cls-1" x1="147.06" y1="75.91" x2="147.06" y2="80.84"/><line class="cls-1" x1="148.62" y1="78.93" x2="146.38" y2="78.93"/><line class="cls-1" x1="148.65" y1="77.25" x2="146.31" y2="77.25"/><line class="cls-1" x1="140.1" y1="75.83" x2="140.1" y2="80.64"/><line class="cls-1" x1="141.54" y1="78.71" x2="139.17" y2="78.71"/><line class="cls-1" x1="141.51" y1="77.25" x2="139.11" y2="77.25"/><line class="cls-1" x1="132.27" y1="75.91" x2="132.27" y2="80.64"/><line class="cls-1" x1="133.79" y1="79.21" x2="131.41" y2="79.21"/><line class="cls-1" x1="133.79" y1="77.67" x2="131.24" y2="77.67"/><line class="cls-1" x1="124.01" y1="75.83" x2="124.01" y2="80.64"/><line class="cls-1" x1="125.54" y1="78.93" x2="122.8" y2="78.93"/><line class="cls-1" x1="125.54" y1="77.25" x2="122.8" y2="77.25"/><line class="cls-1" x1="140.12" y1="87.12" x2="140.12" y2="91.93"/><line class="cls-1" x1="141.53" y1="89.52" x2="139.17" y2="89.52"/><line class="cls-1" x1="123.76" y1="87.3" x2="123.63" y2="92.23"/><line class="cls-1" x1="125.61" y1="90.36" x2="122.8" y2="90.5"/><line class="cls-1" x1="125.54" y1="88.54" x2="122.68" y2="88.64"/><line class="cls-1" x1="105.24" y1="75.43" x2="105.24" y2="80.76"/><line class="cls-1" x1="106.99" y1="78.72" x2="104.09" y2="78.72"/><line class="cls-1" x1="106.99" y1="76.82" x2="103.86" y2="76.82"/><line class="cls-1" x1="95.18" y1="75.19" x2="95.12" y2="81.35"/><line class="cls-1" x1="97.28" y1="78.72" x2="93.64" y2="78.72"/><line class="cls-1" x1="97.17" y1="76.79" x2="93.57" y2="76.79"/><line class="cls-1" x1="94.89" y1="88.27" x2="94.71" y2="94.54"/><line class="cls-1" x1="97.13" y1="91.83" x2="93.31" y2="91.93"/><line class="cls-1" x1="96.94" y1="89.77" x2="93.37" y2="89.98"/><line class="cls-1" x1="83.82" y1="88.27" x2="83.76" y2="94.32"/><line class="cls-1" x1="85.72" y1="92.23" x2="82.1" y2="92.23"/><line class="cls-1" x1="85.62" y1="90.36" x2="81.84" y2="90.36"/><line class="cls-1" x1="106.01" y1="100.36" x2="104.12" y2="100.55"/><line class="cls-1" x1="106.56" y1="100.98" x2="103.55" y2="101.17"/><line class="cls-1" x1="106.66" y1="101.67" x2="103.22" y2="101.91"/><line class="cls-1" x1="106.67" y1="102.35" x2="103.09" y2="102.6"/><line class="cls-1" x1="115.97" y1="99.96" x2="113.91" y2="100.1"/><line class="cls-1" x1="116.2" y1="100.26" x2="113.67" y2="100.44"/><line class="cls-1" x1="116.34" y1="100.59" x2="113.53" y2="100.73"/><line class="cls-1" x1="116.44" y1="100.97" x2="113.41" y2="101.09"/><polyline class="cls-1" points="116.44 101.38 114.73 101.43 113.25 101.48"/><line class="cls-1" x1="114.44" y1="107.06" x2="114.73" y2="101.43"/><line class="cls-1" x1="116.44" y1="102.92" x2="113.23" y2="103.06"/><line class="cls-1" x1="116.41" y1="104.56" x2="113.23" y2="104.87"/><line class="cls-1" x1="125.05" y1="99" x2="123.33" y2="99.13"/><line class="cls-1" x1="125.36" y1="99.35" x2="122.92" y2="99.55"/><line class="cls-1" x1="125.5" y1="99.7" x2="122.7" y2="99.93"/><line class="cls-1" x1="125.5" y1="100.07" x2="122.56" y2="100.32"/><polyline class="cls-1" points="125.55 100.44 123.77 100.61 122.46 100.73"/><line class="cls-1" x1="123.65" y1="106.24" x2="123.77" y2="100.61"/><line class="cls-1" x1="125.05" y1="106.06" x2="125.05" y2="100.59"/><line class="cls-1" x1="124.98" y1="102.01" x2="122.35" y2="102.27"/><line class="cls-1" x1="124.98" y1="103.65" x2="122.35" y2="103.93"/><line class="cls-1" x1="148.95" y1="98.55" x2="146.46" y2="98.8"/><line class="cls-1" x1="148.91" y1="97.95" x2="146.58" y2="98.11"/><polyline class="cls-1" points="148.81 97.54 146.7 97.75 146.83 97.46 148.72 97.33"/><line class="cls-1" x1="148.45" y1="96.97" x2="147.13" y2="97.05"/><polyline class="cls-1" points="141.81 99.25 139.19 99.41 139.21 99.08 141.81 98.98"/><line class="cls-1" x1="141.7" y1="98.55" x2="139.19" y2="98.67"/><line class="cls-1" x1="139.43" y1="98.25" x2="141.55" y2="98.25"/><line class="cls-1" x1="141.18" y1="97.81" x2="139.77" y2="97.81"/><polygon class="cls-1" points="87.07 65.73 87.07 67.78 84.63 67.67 82.21 67.57 82.33 65.49 84.79 65.61 85.08 65.63 87.07 65.73"/><polygon class="cls-1" points="98.89 66.41 97.2 66.28 91.69 65.86 91.69 67.99 98.89 68.28 98.89 66.41"/><line class="cls-1" x1="97.15" y1="68.21" x2="97.2" y2="66.28"/><line class="cls-1" x1="96.7" y1="68.19" x2="96.7" y2="66.24"/><line class="cls-1" x1="93.87" y1="68.08" x2="93.93" y2="66.03"/><polygon class="cls-1" points="170.28 69.77 172.38 69.83 172.44 71.33 170.28 71.22 170.28 69.77"/><polygon class="cls-1" points="178.53 70.08 175.64 70 175.64 71.52 178.61 71.6 178.53 70.08"/><polygon class="cls-1" points="183.21 70.34 180.08 70.2 180.14 71.6 183.34 71.6 183.21 70.34"/><polygon class="cls-1" points="187.81 70.49 184.75 70.41 184.75 71.82 188.04 71.82 187.98 70.55 187.81 70.49"/><polygon class="cls-1" points="192.37 70.76 189.3 70.65 189.3 71.91 192.37 71.99 192.37 70.76"/><polygon class="cls-1" points="196.67 70.97 193.56 70.83 193.68 71.99 196.74 72.03 196.67 70.97"/><polygon class="cls-1" points="200.49 71.22 197.97 71.13 197.97 72.08 200.49 72.16 200.49 71.22"/><polygon class="cls-1" points="204.09 71.32 202.43 71.32 202.51 72.29 204.09 72.29 204.09 71.32"/><line class="cls-1" x1="199.67" y1="71.22" x2="199.67" y2="72.14"/><line class="cls-1" x1="198.75" y1="71.22" x2="198.75" y2="72.1"/><line class="cls-1" x1="195.85" y1="70.94" x2="195.85" y2="72.03"/><line class="cls-1" x1="194.95" y1="70.94" x2="195.07" y2="71.99"/><line class="cls-1" x1="191.49" y1="70.73" x2="191.49" y2="71.99"/><line class="cls-1" x1="190.75" y1="70.73" x2="190.75" y2="71.99"/><line class="cls-1" x1="186.9" y1="70.47" x2="186.9" y2="71.82"/><line class="cls-1" x1="186" y1="70.44" x2="186" y2="71.82"/><line class="cls-1" x1="182.22" y1="71.6" x2="182.13" y2="70.29"/><line class="cls-1" x1="181.27" y1="70.25" x2="181.35" y2="71.6"/><line class="cls-1" x1="177.43" y1="70.05" x2="177.43" y2="71.57"/><line class="cls-1" x1="176.73" y1="71.52" x2="176.73" y2="70.05"/><line class="cls-1" x1="77.34" y1="67.78" x2="73.1" y2="69.62"/><polyline class="cls-1" points="102.08 66.44 101.69 66.5 101.69 66.17 109.62 66.63 109.62 66.91 107.21 66.76 102.08 66.44 102.08 68.57 109.26 68.97 109.26 66.93"/><path class="cls-1" d="M133.54,105.27l.1-5.52s.12-1.41-1-1.64"/><path class="cls-1" d="M187.75,100V94.47s-.13-.88-.51-1"/><path class="cls-1" d="M200.54,92.2a1.85,1.85,0,0,1,.5,1.29c0,.83.15,5.22.15,5.22"/><path class="cls-1" d="M196.15,92.62a1.69,1.69,0,0,1,.46,1.26c0,.92.13,5.27.13,5.27"/><polyline class="cls-1" points="161.61 38.96 161.51 33.8 161.11 33.8 161.36 38.85"/><polygon class="cls-1" points="162.17 34.77 162.17 35.26 160.55 34.93 160.55 34.48 162.17 34.77"/><path class="cls-1" d="M161.51,33.8s.06-.31-.09-.34-.16-.26-.16-.26-.08.22-.15.25,0,.35,0,.35"/><path class="cls-1" d="M160.55,34.48s-.31-.09-.36.05-.27.13-.27.13.21.11.24.18.34,0,.34,0"/><path class="cls-1" d="M162.15,34.81s.3-.09.35,0,.27.13.27.13-.21.11-.23.18-.35,0-.35,0"/><polyline class="cls-1" points="154.99 64.69 152.2 65.3 153.03 66.14 152.1 66.22"/><path class="cls-1" d="M161.09,66.55a18.77,18.77,0,0,0-4.56-.22c-2.79.17-3.89.31-3.89.31l-2.23.26"/><line class="cls-1" x1="153.76" y1="65.93" x2="153.03" y2="66.14"/><line class="cls-1" x1="161.78" y1="94.58" x2="161.78" y2="102.53"/><line class="cls-1" x1="152.81" y1="94.18" x2="152.81" y2="103.36"/><text class="cls-3" transform="translate(84.14 207.29)">l<tspan class="cls-4" x="8.32" y="0">y</tspan><tspan class="cls-5" x="18.33" y="0">on france</tspan></text><text class="cls-6" transform="translate(34.41 143.12)">les l<tspan class="cls-7" x="59.16" y="0">a</tspan><tspan x="74.1" y="0">bor</tspan><tspan class="cls-8" x="120.21" y="0">a</tspan><tspan class="cls-9" x="134.58" y="0">t</tspan><tspan class="cls-10" x="145.87" y="0">oires </tspan><tspan class="cls-11"><tspan x="10.77" y="24.76">de </tspan><tspan class="cls-12" x="45.08" y="24.76">l</tspan><tspan class="cls-13" x="55.23" y="24.76">’</tspan><tspan class="cls-14" x="59.16" y="24.76">ant</tspan><tspan class="cls-15" x="103.94" y="24.76">i</tspan><tspan class="cls-16" x="109.81" y="24.76">q</tspan><tspan class="cls-17" x="125.14" y="24.76">u</tspan><tspan x="140.83" y="24.76">aille</tspan></tspan></text><circle class="cls-18" cx="139.17" cy="139.2" r="134.38"/><circle class="cls-19" cx="139.13" cy="139.17" r="123.29"/></g></svg>