<?xml version="1.0" encoding="utf-8"?>
<!-- Generator: Adobe Illustrator 24.3.0, SVG Export Plug-In . SVG Version: 6.00 Build 0)  -->
<svg version="1.1" id="Calque_1" xmlns="http://www.w3.org/2000/svg" xmlns:xlink="http://www.w3.org/1999/xlink" x="0px" y="0px"
	 viewBox="0 0 287 287" style="enable-background:new 0 0 287 287;" xml:space="preserve">
<style type="text/css">
	.st0{fill:#FFFFFF;}
	.st1{fill:#FFFFFF;stroke:#80705A;stroke-width:0.7051;stroke-miterlimit:10;}
	.st2{fill:none;stroke:#80705A;stroke-width:0.3107;stroke-miterlimit:10;}
	.st3{fill:#DE4A5F;stroke:#80705A;stroke-width:0.3107;stroke-miterlimit:10;}
	.st4{fill:none;stroke:#80705A;stroke-width:1.6715;stroke-linecap:round;stroke-miterlimit:10;}
	.st5{fill:none;stroke:#80705A;stroke-width:1.6715;stroke-linecap:round;stroke-miterlimit:10;stroke-dasharray:0.1149,6.0228;}
	.st6{opacity:0.19;fill:#80705A;}
	.st7{fill:#E8E4E1;}
	.st8{opacity:0.3;fill:#E8E4E1;}
	.st9{fill:none;stroke:#000000;stroke-miterlimit:10;}
	.st10{opacity:0.84;fill:#FFFFFF;}
	.st11{fill:none;stroke:#80705A;stroke-width:2;stroke-miterlimit:10;}
	.st12{opacity:0.44;}
	.st13{fill:none;stroke:#80705A;stroke-width:2.3592;stroke-miterlimit:10;}
	.st14{fill:none;}
	.st15{opacity:0.84;fill:#80705A;}
	.st16{fill:none;stroke:#80705A;stroke-width:2.3613;stroke-miterlimit:10;}
	.st17{opacity:0.17;}
	.st18{fill:none;stroke:#80705A;stroke-miterlimit:10;}
	.st19{fill:#FFFFFF;stroke:#80705A;stroke-miterlimit:10;}
	.st20{fill:#2E2E2D;}
	.st21{fill:#0098DB;}
	.st22{fill:#81705A;}
	.st23{fill:none;stroke:#FFFFFF;stroke-width:2;stroke-miterlimit:10;}
	.st24{fill:none;stroke:#FFFFFF;stroke-width:2.3592;stroke-miterlimit:10;}
	.st25{fill:none;stroke:#FFFFFF;stroke-width:2.3525;stroke-miterlimit:10;}
	.st26{fill:none;stroke:#80705A;stroke-width:1.0343;stroke-miterlimit:10;}
	.st27{fill:none;stroke:#80705A;stroke-width:0.4557;stroke-miterlimit:10;}
	.st28{fill:#DE4A5F;stroke:#80705A;stroke-width:0.4557;stroke-miterlimit:10;}
	.st29{fill:none;stroke:#80705A;stroke-width:2.4518;stroke-linecap:round;stroke-miterlimit:10;}
	.st30{fill:none;stroke:#80705A;stroke-width:2.4518;stroke-linecap:round;stroke-miterlimit:10;stroke-dasharray:0.1686,8.8344;}
	.st31{fill:none;stroke:#000000;stroke-width:0.5;stroke-miterlimit:10;}
	.st32{fill:none;stroke:#80705A;stroke-width:0.3032;stroke-miterlimit:10;}
	.st33{fill:none;stroke:#80705A;stroke-width:0.1395;stroke-miterlimit:10;}
	.st34{fill:#DE4A5F;stroke:#80705A;stroke-width:0.1395;stroke-miterlimit:10;}
	.st35{fill:none;stroke:#80705A;stroke-width:0.7187;stroke-linecap:round;stroke-miterlimit:10;stroke-dasharray:0.0493,2.5837;}
	.st36{fill:#FFFFFF;stroke:#80705A;stroke-width:0.7303;stroke-miterlimit:10;}
	.st37{fill:none;stroke:#80705A;stroke-width:0.339;stroke-miterlimit:10;}
	.st38{fill:#DE4A5F;stroke:#80705A;stroke-width:0.339;stroke-miterlimit:10;}
	.st39{fill:none;stroke:#80705A;stroke-width:1.7463;stroke-linecap:round;stroke-miterlimit:10;stroke-dasharray:0.1201,6.2919;}
	.st40{fill:#80705A;}
	.st41{font-family:'Avenir-Roman';}
	.st42{font-size:21.8684px;}
	.st43{letter-spacing:5;}
	.st44{font-family:'BelovedSans-Bold';}
	.st45{font-size:14.5789px;}
	.st46{letter-spacing:2;}
</style>
<g>
	<circle class="st36" cx="143.5" cy="143.5" r="138.5"/>
	<g>
		<path class="st37" d="M161.18,73.2l-64.54-4.52l-21.58,4.71l-5.07,3.32l0.45,0.35l1.56,0.05l-0.04,2.13l-0.23,0.12l0.02,0.53
			l0.18,0.04l-1.93,39.67l3.68,4.31l142.94-13.89l-1.73-27.31c0,0,0.4-0.15,0-0.32l-0.11-1.38h1.13l-0.01-0.52l-18.92-4.8
			l-21.25-1.49"/>
		<path class="st37" d="M177.43,113.79l-1.24-37.71h0.11l-0.02-0.5h-0.53l-0.41-10.59l0.2-0.08l0.01-0.24h0.28v-0.29l0.71-0.1v-0.52
			l0.18-0.11l-4.19-0.49l-0.38-9.93l0.2-0.14l0.27-0.09l-0.01-0.34l0.3-0.16l0.01-0.89l-0.71-0.53c0,0,0.45-3.73-3.55-4.07
			l-0.88-0.14v-0.48h-0.89l0.09,0.48c0,0-3.54,0.6-3.91,2.83c0,0-0.36,1.03-0.12,2.08l-0.72,0.72l0.31,0.86l0.19-0.02l0.21,0.41
			l0.34,0.03l0.36,9.63l-3.89,0.98l0.21,0.16l-0.02,0.38l0.62,0.03l0.01,0.25l0.37,0.02l0.11,0.2l0.14,7.77"/>
		<line class="st38" x1="214.76" y1="81.02" x2="176.29" y2="79.06"/>
		<g>
			<polygon class="st37" points="174.55,80.18 174.64,85.66 172.98,85.66 172.87,80.12 			"/>
			<rect x="172.6" y="85.76" class="st37" width="2.86" height="0.39"/>
			<line class="st37" x1="173.42" y1="80.14" x2="173.49" y2="85.66"/>
			<line class="st37" x1="174.61" y1="83.57" x2="173.01" y2="83.57"/>
			<line class="st37" x1="174.58" y1="81.84" x2="172.9" y2="81.78"/>
			<polyline class="st37" points="175.02,85.74 174.88,79.93 174.55,80.18 			"/>
			<polyline class="st37" points="172.87,80.12 172.87,79.86 174.94,79.86 			"/>
		</g>
		<g>
			<polygon class="st37" points="171.13,80.18 171.23,85.66 169.56,85.66 169.45,80.12 			"/>
			<rect x="169.18" y="85.76" class="st37" width="2.86" height="0.39"/>
			<line class="st37" x1="170" y1="80.14" x2="170.08" y2="85.66"/>
			<line class="st37" x1="171.19" y1="83.57" x2="169.59" y2="83.57"/>
			<line class="st37" x1="171.16" y1="81.84" x2="169.48" y2="81.78"/>
			<polyline class="st37" points="171.6,85.74 171.47,79.93 171.13,80.18 			"/>
			<polyline class="st37" points="169.45,80.12 169.45,79.86 171.52,79.86 			"/>
		</g>
		<g>
			<polygon class="st37" points="171.4,91.25 171.49,96.72 169.83,96.72 169.71,91.18 			"/>
			<rect x="169.45" y="96.83" class="st37" width="2.86" height="0.39"/>
			<line class="st37" x1="170.27" y1="91.2" x2="170.34" y2="96.72"/>
			<line class="st37" x1="171.46" y1="94.63" x2="169.86" y2="94.63"/>
			<line class="st37" x1="171.43" y1="92.9" x2="169.75" y2="92.84"/>
			<polyline class="st37" points="171.87,96.8 171.73,90.99 171.4,91.25 			"/>
			<polyline class="st37" points="169.71,91.18 169.71,90.92 171.78,90.93 			"/>
		</g>
		<g>
			<polygon class="st37" points="174.82,91.25 174.91,96.72 173.25,96.72 173.13,91.18 			"/>
			<rect x="172.87" y="96.83" class="st37" width="2.86" height="0.39"/>
			<line class="st37" x1="173.69" y1="91.2" x2="173.76" y2="96.72"/>
			<line class="st37" x1="174.87" y1="94.63" x2="173.28" y2="94.63"/>
			<line class="st37" x1="174.84" y1="92.9" x2="173.17" y2="92.84"/>
			<polyline class="st37" points="175.29,96.8 175.15,90.99 174.82,91.25 			"/>
			<polyline class="st37" points="173.13,91.18 173.13,90.92 175.2,90.93 			"/>
		</g>
		<g>
			<polygon class="st37" points="171.68,102.58 171.77,108.05 170.11,108.05 169.99,102.51 			"/>
			<rect x="169.73" y="108.16" class="st37" width="2.86" height="0.39"/>
			<line class="st37" x1="170.55" y1="102.53" x2="170.62" y2="108.05"/>
			<line class="st37" x1="171.74" y1="105.97" x2="170.14" y2="105.97"/>
			<line class="st37" x1="171.71" y1="104.23" x2="170.03" y2="104.17"/>
			<polyline class="st37" points="172.15,108.14 172.01,102.33 171.68,102.58 			"/>
			<polyline class="st37" points="169.99,102.51 169.99,102.25 172.06,102.26 			"/>
		</g>
		<g>
			<polygon class="st37" points="175.1,102.45 175.19,107.93 173.53,107.93 173.41,102.38 			"/>
			<rect x="173.15" y="108.03" class="st37" width="2.86" height="0.39"/>
			<line class="st37" x1="173.97" y1="102.41" x2="174.04" y2="107.93"/>
			<line class="st37" x1="175.15" y1="105.84" x2="173.56" y2="105.84"/>
			<line class="st37" x1="175.12" y1="104.1" x2="173.45" y2="104.04"/>
			<polyline class="st37" points="175.57,108.01 175.43,102.2 175.1,102.45 			"/>
			<polyline class="st37" points="173.41,102.38 173.41,102.13 175.48,102.13 			"/>
		</g>
		<g>
			<path class="st37" d="M179.4,90.92l-0.1-5.16c0,0-0.17-1.28-1.1-1.28c-0.93,0-1.07,1.47-1.07,1.47l0.16,4.97H179.4z"/>
			<rect x="177.08" y="90.92" class="st37" width="2.52" height="0.37"/>
			<line class="st37" x1="179.31" y1="86.5" x2="177.15" y2="86.5"/>
			<line class="st37" x1="179.31" y1="86.04" x2="177.15" y2="86.04"/>
			<line class="st37" x1="179.31" y1="85.61" x2="177.15" y2="85.61"/>
			<line class="st37" x1="179.15" y1="85.18" x2="177.31" y2="85.18"/>
			<line class="st37" x1="178.89" y1="84.75" x2="177.57" y2="84.75"/>
		</g>
		<g>
			<path class="st37" d="M185.12,90.92l-0.1-5.16c0,0-0.17-1.28-1.1-1.28s-1.07,1.47-1.07,1.47l0.16,4.97H185.12z"/>
			<rect x="182.8" y="90.92" class="st37" width="2.52" height="0.37"/>
			<line class="st37" x1="185.03" y1="86.5" x2="182.86" y2="86.5"/>
			<line class="st37" x1="185.03" y1="86.04" x2="182.86" y2="86.04"/>
			<line class="st37" x1="185.03" y1="85.61" x2="182.86" y2="85.61"/>
			<line class="st37" x1="184.86" y1="85.18" x2="183.02" y2="85.18"/>
			<line class="st37" x1="184.6" y1="84.75" x2="183.28" y2="84.75"/>
		</g>
		<g>
			<path class="st37" d="M153.6,91.36l-0.13-6.21c0,0-0.21-1.54-1.33-1.54c-1.12,0-1.29,1.77-1.29,1.77l0.19,5.98H153.6z"/>
			<rect x="150.81" y="91.36" class="st37" width="3.04" height="0.44"/>
			<line class="st37" x1="153.49" y1="86.03" x2="150.88" y2="86.03"/>
			<line class="st37" x1="153.49" y1="85.48" x2="150.88" y2="85.48"/>
			<line class="st37" x1="153.49" y1="84.96" x2="150.88" y2="84.96"/>
			<line class="st37" x1="153.3" y1="84.45" x2="151.08" y2="84.45"/>
			<line class="st37" x1="152.98" y1="83.93" x2="151.39" y2="83.93"/>
		</g>
		<g>
			<path class="st37" d="M145.89,91.14l-0.13-6.21c0,0-0.21-1.54-1.33-1.54c-1.12,0-1.29,1.77-1.29,1.77l0.19,5.98H145.89z"/>
			<rect x="143.1" y="91.14" class="st37" width="3.04" height="0.44"/>
			<line class="st37" x1="145.78" y1="85.81" x2="143.17" y2="85.81"/>
			<line class="st37" x1="145.78" y1="85.26" x2="143.17" y2="85.26"/>
			<line class="st37" x1="145.78" y1="84.74" x2="143.17" y2="84.74"/>
			<line class="st37" x1="145.58" y1="84.23" x2="143.36" y2="84.23"/>
			<line class="st37" x1="145.27" y1="83.71" x2="143.68" y2="83.71"/>
		</g>
		<g>
			<path class="st37" d="M137.52,91.14l-0.13-6.21c0,0-0.21-1.54-1.33-1.54c-1.12,0-1.29,1.77-1.29,1.77l0.19,5.98H137.52z"/>
			<rect x="134.72" y="91.14" class="st37" width="3.04" height="0.44"/>
			<line class="st37" x1="137.41" y1="85.81" x2="134.8" y2="85.81"/>
			<line class="st37" x1="137.41" y1="85.26" x2="134.8" y2="85.26"/>
			<line class="st37" x1="137.41" y1="84.74" x2="134.8" y2="84.74"/>
			<line class="st37" x1="137.21" y1="84.23" x2="134.99" y2="84.23"/>
			<line class="st37" x1="136.9" y1="83.71" x2="135.31" y2="83.71"/>
		</g>
		<g>
			<path class="st37" d="M153.6,103.55l-0.13-6.21c0,0-0.21-1.54-1.33-1.54c-1.12,0-1.29,1.77-1.29,1.77l0.19,5.98H153.6z"/>
			<rect x="150.81" y="103.55" class="st37" width="3.04" height="0.44"/>
			<line class="st37" x1="153.49" y1="98.22" x2="150.88" y2="98.22"/>
			<line class="st37" x1="153.49" y1="97.67" x2="150.88" y2="97.67"/>
			<line class="st37" x1="153.49" y1="97.15" x2="150.88" y2="97.15"/>
			<line class="st37" x1="153.3" y1="96.64" x2="151.08" y2="96.64"/>
			<line class="st37" x1="152.98" y1="96.12" x2="151.39" y2="96.12"/>
		</g>
		<g>
			<path class="st37" d="M145.89,103.33l-0.13-6.21c0,0-0.21-1.54-1.33-1.54c-1.12,0-1.29,1.77-1.29,1.77l0.19,5.98H145.89z"/>
			<rect x="143.1" y="103.33" class="st37" width="3.04" height="0.44"/>
			<line class="st37" x1="145.78" y1="98" x2="143.17" y2="98"/>
			<line class="st37" x1="145.78" y1="97.45" x2="143.17" y2="97.45"/>
			<line class="st37" x1="145.78" y1="96.93" x2="143.17" y2="96.93"/>
			<line class="st37" x1="145.58" y1="96.42" x2="143.36" y2="96.42"/>
			<line class="st37" x1="145.27" y1="95.9" x2="143.68" y2="95.9"/>
		</g>
		<g>
			<path class="st37" d="M137.52,103.33l-0.13-6.21c0,0-0.21-1.54-1.33-1.54c-1.12,0-1.29,1.77-1.29,1.77l0.19,5.98H137.52z"/>
			<rect x="134.72" y="103.33" class="st37" width="3.04" height="0.44"/>
			<line class="st37" x1="137.41" y1="98" x2="134.8" y2="98"/>
			<line class="st37" x1="137.41" y1="97.45" x2="134.8" y2="97.45"/>
			<line class="st37" x1="137.41" y1="96.93" x2="134.8" y2="96.93"/>
			<line class="st37" x1="137.21" y1="96.42" x2="134.99" y2="96.42"/>
			<line class="st37" x1="136.9" y1="95.9" x2="135.31" y2="95.9"/>
		</g>
		<g>
			<path class="st37" d="M128.7,91.14l-0.15-6.21c0,0-0.25-1.54-1.57-1.54s-1.52,1.77-1.52,1.77l0.22,5.98H128.7z"/>
			<rect x="125.4" y="91.14" class="st37" width="3.59" height="0.44"/>
			<line class="st37" x1="128.57" y1="85.81" x2="125.49" y2="85.81"/>
			<line class="st37" x1="128.57" y1="85.26" x2="125.49" y2="85.26"/>
			<line class="st37" x1="128.57" y1="84.74" x2="125.49" y2="84.74"/>
			<line class="st37" x1="128.34" y1="84.23" x2="125.72" y2="84.23"/>
			<line class="st37" x1="127.97" y1="83.71" x2="126.09" y2="83.71"/>
		</g>
		<g>
			<path class="st37" d="M128.7,103.66l-0.15-6.21c0,0-0.25-1.54-1.57-1.54s-1.52,1.77-1.52,1.77l0.22,5.98H128.7z"/>
			<rect x="125.4" y="103.66" class="st37" width="3.59" height="0.44"/>
			<line class="st37" x1="128.57" y1="98.33" x2="125.49" y2="98.33"/>
			<line class="st37" x1="128.57" y1="97.78" x2="125.49" y2="97.78"/>
			<line class="st37" x1="128.57" y1="97.26" x2="125.49" y2="97.26"/>
			<line class="st37" x1="128.34" y1="96.75" x2="125.72" y2="96.75"/>
			<line class="st37" x1="127.97" y1="96.23" x2="126.09" y2="96.23"/>
		</g>
		<g>
			<path class="st37" d="M119.22,91.27l-0.16-6.81c0,0-0.27-1.69-1.72-1.69c-1.45,0-1.66,1.94-1.66,1.94l0.25,6.56H119.22z"/>
			<rect x="115.6" y="91.27" class="st37" width="3.94" height="0.48"/>
			<line class="st37" x1="119.08" y1="85.43" x2="115.7" y2="85.43"/>
			<line class="st37" x1="119.14" y1="86.12" x2="115.75" y2="86.12"/>
			<line class="st37" x1="119.08" y1="86.78" x2="115.7" y2="86.78"/>
			<line class="st37" x1="119.05" y1="87.68" x2="115.67" y2="87.68"/>
			<line class="st37" x1="119.14" y1="88.44" x2="115.75" y2="88.44"/>
			<line class="st37" x1="119.08" y1="84.83" x2="115.7" y2="84.83"/>
			<line class="st37" x1="119.08" y1="84.26" x2="115.7" y2="84.26"/>
			<line class="st37" x1="118.83" y1="83.69" x2="115.95" y2="83.69"/>
			<line class="st37" x1="118.42" y1="83.12" x2="116.36" y2="83.12"/>
		</g>
		<g>
			<path class="st37" d="M108.68,91.27l-0.16-6.81c0,0-0.27-1.69-1.72-1.69s-1.66,1.94-1.66,1.94l0.25,6.56H108.68z"/>
			<rect x="105.06" y="91.27" class="st37" width="3.94" height="0.48"/>
			<line class="st37" x1="108.54" y1="85.43" x2="105.16" y2="85.43"/>
			<line class="st37" x1="108.54" y1="84.83" x2="105.16" y2="84.83"/>
			<line class="st37" x1="108.54" y1="84.26" x2="105.16" y2="84.26"/>
			<line class="st37" x1="108.29" y1="83.69" x2="105.41" y2="83.69"/>
			<line class="st37" x1="107.88" y1="83.12" x2="105.82" y2="83.12"/>
		</g>
		<g>
			<path class="st37" d="M108.64,105.15l-0.18-7.41c0,0-0.3-1.83-1.87-1.83c-1.57,0-1.81,2.11-1.81,2.11l0.27,7.13H108.64z"/>
			<rect x="104.71" y="105.15" class="st37" width="4.28" height="0.53"/>
			<line class="st37" x1="108.49" y1="98.8" x2="104.82" y2="98.8"/>
			<line class="st37" x1="108.49" y1="99.62" x2="104.82" y2="99.62"/>
			<line class="st37" x1="108.49" y1="100.53" x2="104.82" y2="100.53"/>
			<line class="st37" x1="108.49" y1="101.41" x2="104.82" y2="101.41"/>
			<line class="st37" x1="108.55" y1="102.33" x2="104.88" y2="102.33"/>
			<line class="st37" x1="108.55" y1="103.22" x2="104.88" y2="103.22"/>
			<line class="st37" x1="108.64" y1="103.95" x2="104.97" y2="103.95"/>
			<line class="st37" x1="108.64" y1="104.85" x2="104.97" y2="104.85"/>
			<line class="st37" x1="108.49" y1="98.14" x2="104.82" y2="98.14"/>
			<line class="st37" x1="108.49" y1="97.53" x2="104.82" y2="97.53"/>
			<line class="st37" x1="108.22" y1="96.91" x2="105.09" y2="96.91"/>
			<line class="st37" x1="107.78" y1="96.29" x2="105.53" y2="96.29"/>
		</g>
		<g>
			<path class="st37" d="M119.24,105.15l-0.18-7.41c0,0-0.3-1.83-1.87-1.83c-1.57,0-1.81,2.11-1.81,2.11l0.27,7.13H119.24z"/>
			<rect x="115.3" y="105.15" class="st37" width="4.28" height="0.53"/>
			<line class="st37" x1="119.09" y1="98.8" x2="115.41" y2="98.8"/>
			<line class="st37" x1="119.09" y1="98.14" x2="115.41" y2="98.14"/>
			<line class="st37" x1="119.09" y1="97.53" x2="115.41" y2="97.53"/>
			<line class="st37" x1="118.81" y1="96.91" x2="115.68" y2="96.91"/>
			<line class="st37" x1="118.37" y1="96.29" x2="116.13" y2="96.29"/>
		</g>
		<g>
			<path class="st37" d="M98.06,91.91l-0.19-7.9c0,0-0.32-1.95-1.99-1.95c-1.68,0-1.93,2.25-1.93,2.25l0.28,7.6H98.06z"/>
			<rect x="93.87" y="91.91" class="st37" width="4.56" height="0.56"/>
			<line class="st37" x1="97.9" y1="85.14" x2="93.98" y2="85.14"/>
			<line class="st37" x1="97.9" y1="84.44" x2="93.98" y2="84.44"/>
			<line class="st37" x1="97.9" y1="83.78" x2="93.98" y2="83.78"/>
			<line class="st37" x1="97.61" y1="83.12" x2="94.27" y2="83.12"/>
			<line class="st37" x1="97.14" y1="82.47" x2="94.74" y2="82.47"/>
		</g>
		<g>
			<path class="st37" d="M86.11,91.91l-0.19-7.9c0,0-0.32-1.95-1.99-1.95c-1.68,0-1.93,2.25-1.93,2.25l0.28,7.6H86.11z"/>
			<rect x="81.92" y="91.91" class="st37" width="4.56" height="0.56"/>
			<line class="st37" x1="85.95" y1="85.14" x2="82.03" y2="85.14"/>
			<line class="st37" x1="85.95" y1="84.44" x2="82.03" y2="84.44"/>
			<line class="st37" x1="85.95" y1="83.78" x2="82.03" y2="83.78"/>
			<line class="st37" x1="85.66" y1="83.12" x2="82.33" y2="83.12"/>
			<line class="st37" x1="85.19" y1="82.47" x2="82.8" y2="82.47"/>
		</g>
		<g>
			<path class="st37" d="M85.58,106.15l-0.19-7.9c0,0-0.32-1.95-1.99-1.95c-1.68,0-1.93,2.25-1.93,2.25l0.28,7.6H85.58z"/>
			<rect x="81.39" y="106.15" class="st37" width="4.56" height="0.56"/>
			<line class="st37" x1="85.42" y1="99.38" x2="81.5" y2="99.38"/>
			<line class="st37" x1="85.42" y1="98.68" x2="81.5" y2="98.68"/>
			<line class="st37" x1="85.42" y1="98.02" x2="81.5" y2="98.02"/>
			<line class="st37" x1="85.13" y1="97.37" x2="81.79" y2="97.37"/>
			<line class="st37" x1="84.66" y1="96.71" x2="82.26" y2="96.71"/>
		</g>
		<g>
			<path class="st37" d="M97.85,106.15l-0.19-7.9c0,0-0.32-1.95-1.99-1.95c-1.68,0-1.93,2.25-1.93,2.25l0.28,7.6H97.85z"/>
			<rect x="93.66" y="106.15" class="st37" width="4.56" height="0.56"/>
			<line class="st37" x1="97.69" y1="99.38" x2="93.77" y2="99.38"/>
			<line class="st37" x1="97.69" y1="98.68" x2="93.77" y2="98.68"/>
			<line class="st37" x1="97.69" y1="98.02" x2="93.77" y2="98.02"/>
			<line class="st37" x1="97.4" y1="97.37" x2="94.06" y2="97.37"/>
			<line class="st37" x1="96.93" y1="96.71" x2="94.53" y2="96.71"/>
		</g>
		<g>
			<path class="st37" d="M190.58,90.92l-0.1-5.16c0,0-0.17-1.28-1.1-1.28c-0.93,0-1.07,1.47-1.07,1.47l0.16,4.97H190.58z"/>
			<rect x="188.26" y="90.92" class="st37" width="2.52" height="0.37"/>
			<line class="st37" x1="190.49" y1="86.5" x2="188.33" y2="86.5"/>
			<line class="st37" x1="190.49" y1="86.04" x2="188.33" y2="86.04"/>
			<line class="st37" x1="190.49" y1="85.61" x2="188.33" y2="85.61"/>
			<line class="st37" x1="190.33" y1="85.18" x2="188.49" y2="85.18"/>
			<line class="st37" x1="190.07" y1="84.75" x2="188.75" y2="84.75"/>
		</g>
		<g>
			<path class="st37" d="M195.46,90.86l-0.1-4.9c0,0-0.17-1.21-1.05-1.21s-1.01,1.4-1.01,1.4l0.15,4.72H195.46z"/>
			<rect x="193.26" y="90.86" class="st37" width="2.4" height="0.35"/>
			<line class="st37" x1="195.37" y1="86.66" x2="193.31" y2="86.66"/>
			<line class="st37" x1="195.37" y1="86.23" x2="193.31" y2="86.23"/>
			<line class="st37" x1="195.37" y1="85.82" x2="193.31" y2="85.82"/>
			<line class="st37" x1="195.22" y1="85.41" x2="193.47" y2="85.41"/>
			<line class="st37" x1="194.97" y1="85" x2="193.72" y2="85"/>
		</g>
		<g>
			<path class="st37" d="M200.31,90.35l-0.08-4.04c0,0-0.14-1-0.86-1c-0.72,0-0.83,1.15-0.83,1.15l0.12,3.88H200.31z"/>
			<rect x="198.5" y="90.35" class="st37" width="1.97" height="0.29"/>
			<line class="st37" x1="200.24" y1="86.89" x2="198.55" y2="86.89"/>
			<line class="st37" x1="200.24" y1="86.54" x2="198.55" y2="86.54"/>
			<line class="st37" x1="200.24" y1="86.2" x2="198.55" y2="86.2"/>
			<line class="st37" x1="200.12" y1="85.86" x2="198.67" y2="85.86"/>
			<line class="st37" x1="199.91" y1="85.53" x2="198.88" y2="85.53"/>
		</g>
		<g>
			<path class="st37" d="M205.09,90.21L205,86.17c0,0-0.14-1-0.86-1c-0.73,0-0.83,1.15-0.83,1.15l0.12,3.88H205.09z"/>
			<rect x="203.27" y="90.21" class="st37" width="1.97" height="0.29"/>
			<line class="st37" x1="205.02" y1="86.75" x2="203.32" y2="86.75"/>
			<line class="st37" x1="205.02" y1="86.39" x2="203.32" y2="86.39"/>
			<line class="st37" x1="205.02" y1="86.06" x2="203.32" y2="86.06"/>
			<line class="st37" x1="204.89" y1="85.72" x2="203.45" y2="85.72"/>
			<line class="st37" x1="204.69" y1="85.38" x2="203.65" y2="85.38"/>
		</g>
		<g>
			<path class="st37" d="M209.5,90.18l-0.08-4.04c0,0-0.14-1-0.86-1c-0.73,0-0.83,1.15-0.83,1.15l0.12,3.88H209.5z"/>
			<rect x="207.69" y="90.18" class="st37" width="1.97" height="0.29"/>
			<line class="st37" x1="209.43" y1="86.72" x2="207.74" y2="86.72"/>
			<line class="st37" x1="209.43" y1="86.36" x2="207.74" y2="86.36"/>
			<line class="st37" x1="209.43" y1="86.03" x2="207.74" y2="86.03"/>
			<line class="st37" x1="209.31" y1="85.69" x2="207.86" y2="85.69"/>
			<line class="st37" x1="209.1" y1="85.35" x2="208.07" y2="85.35"/>
		</g>
		<g>
			<path class="st37" d="M213.66,90.21l-0.08-4.04c0,0-0.14-1-0.86-1c-0.73,0-0.83,1.15-0.83,1.15l0.12,3.88H213.66z"/>
			<rect x="211.84" y="90.21" class="st37" width="1.97" height="0.29"/>
			<line class="st37" x1="213.58" y1="86.75" x2="211.89" y2="86.75"/>
			<line class="st37" x1="213.58" y1="86.39" x2="211.89" y2="86.39"/>
			<line class="st37" x1="213.58" y1="86.06" x2="211.89" y2="86.06"/>
			<line class="st37" x1="213.46" y1="85.72" x2="212.02" y2="85.72"/>
			<line class="st37" x1="213.26" y1="85.38" x2="212.22" y2="85.38"/>
		</g>
		<g>
			<path class="st37" d="M195.98,100.06l-0.1-4.9c0,0-0.17-1.21-1.05-1.21c-0.88,0-1.01,1.4-1.01,1.4l0.15,4.72H195.98z"/>
			<rect x="193.77" y="100.06" class="st37" width="2.4" height="0.35"/>
			<line class="st37" x1="195.89" y1="95.86" x2="193.83" y2="95.86"/>
			<line class="st37" x1="195.89" y1="95.42" x2="193.83" y2="95.42"/>
			<line class="st37" x1="195.89" y1="95.02" x2="193.83" y2="95.02"/>
			<line class="st37" x1="195.74" y1="94.61" x2="193.99" y2="94.61"/>
			<line class="st37" x1="195.49" y1="94.2" x2="194.23" y2="94.2"/>
		</g>
		<g>
			<path class="st37" d="M200.71,99.38l-0.08-4.04c0,0-0.14-1-0.86-1c-0.72,0-0.83,1.15-0.83,1.15l0.12,3.88H200.71z"/>
			<rect x="198.89" y="99.38" class="st37" width="1.97" height="0.29"/>
			<line class="st37" x1="200.63" y1="95.92" x2="198.94" y2="95.92"/>
			<line class="st37" x1="200.63" y1="95.56" x2="198.94" y2="95.56"/>
			<line class="st37" x1="200.63" y1="95.22" x2="198.94" y2="95.22"/>
			<line class="st37" x1="200.51" y1="94.89" x2="199.07" y2="94.89"/>
			<line class="st37" x1="200.31" y1="94.55" x2="199.27" y2="94.55"/>
		</g>
		<g>
			<path class="st37" d="M205.64,99.23l-0.08-4.04c0,0-0.14-1-0.86-1c-0.73,0-0.83,1.15-0.83,1.15l0.12,3.88H205.64z"/>
			<rect x="203.83" y="99.23" class="st37" width="1.97" height="0.29"/>
			<line class="st37" x1="205.57" y1="95.78" x2="203.88" y2="95.78"/>
			<line class="st37" x1="205.57" y1="95.42" x2="203.88" y2="95.42"/>
			<line class="st37" x1="205.57" y1="95.08" x2="203.88" y2="95.08"/>
			<line class="st37" x1="205.45" y1="94.75" x2="204" y2="94.75"/>
			<line class="st37" x1="205.24" y1="94.41" x2="204.21" y2="94.41"/>
		</g>
		<g>
			<path class="st37" d="M209.93,99.09l-0.08-4.04c0,0-0.14-1-0.86-1c-0.73,0-0.83,1.15-0.83,1.15l0.12,3.88H209.93z"/>
			<rect x="208.11" y="99.09" class="st37" width="1.97" height="0.29"/>
			<line class="st37" x1="209.86" y1="95.63" x2="208.16" y2="95.63"/>
			<line class="st37" x1="209.86" y1="95.27" x2="208.16" y2="95.27"/>
			<line class="st37" x1="209.86" y1="94.94" x2="208.16" y2="94.94"/>
			<line class="st37" x1="209.73" y1="94.6" x2="208.29" y2="94.6"/>
			<line class="st37" x1="209.53" y1="94.27" x2="208.49" y2="94.27"/>
		</g>
		<g>
			<path class="st37" d="M214.05,98.78l-0.08-4.04c0,0-0.14-1-0.86-1c-0.73,0-0.83,1.15-0.83,1.15l0.12,3.88H214.05z"/>
			<rect x="212.24" y="98.78" class="st37" width="1.97" height="0.29"/>
			<line class="st37" x1="213.98" y1="95.32" x2="212.28" y2="95.32"/>
			<line class="st37" x1="213.98" y1="94.96" x2="212.28" y2="94.96"/>
			<line class="st37" x1="213.98" y1="94.62" x2="212.28" y2="94.62"/>
			<line class="st37" x1="213.85" y1="94.29" x2="212.41" y2="94.29"/>
			<line class="st37" x1="213.65" y1="93.95" x2="212.61" y2="93.95"/>
		</g>
		<g>
			<path class="st37" d="M191.13,100.39l-0.1-5.16c0,0-0.17-1.28-1.1-1.28c-0.93,0-1.07,1.47-1.07,1.47l0.16,4.97H191.13z"/>
			<rect x="188.81" y="100.39" class="st37" width="2.52" height="0.37"/>
			<line class="st37" x1="191.04" y1="95.97" x2="188.87" y2="95.97"/>
			<line class="st37" x1="191.04" y1="95.52" x2="188.87" y2="95.52"/>
			<line class="st37" x1="191.04" y1="95.09" x2="188.87" y2="95.09"/>
			<line class="st37" x1="190.88" y1="94.66" x2="189.03" y2="94.66"/>
			<line class="st37" x1="190.61" y1="94.23" x2="189.29" y2="94.23"/>
		</g>
		<g>
			<path class="st37" d="M185.43,100.66l-0.1-5.16c0,0-0.17-1.28-1.1-1.28s-1.07,1.47-1.07,1.47l0.16,4.97H185.43z"/>
			<rect x="183.11" y="100.66" class="st37" width="2.52" height="0.37"/>
			<line class="st37" x1="185.34" y1="96.24" x2="183.18" y2="96.24"/>
			<line class="st37" x1="185.34" y1="95.78" x2="183.18" y2="95.78"/>
			<line class="st37" x1="185.34" y1="95.35" x2="183.18" y2="95.35"/>
			<line class="st37" x1="185.18" y1="94.92" x2="183.34" y2="94.92"/>
			<line class="st37" x1="184.92" y1="94.49" x2="183.6" y2="94.49"/>
		</g>
		<g>
			<path class="st37" d="M179.83,100.93l-0.1-5.16c0,0-0.17-1.28-1.1-1.28c-0.93,0-1.07,1.47-1.07,1.47l0.16,4.97H179.83z"/>
			<rect x="177.51" y="100.93" class="st37" width="2.52" height="0.37"/>
			<line class="st37" x1="179.74" y1="96.51" x2="177.57" y2="96.51"/>
			<line class="st37" x1="179.74" y1="96.05" x2="177.57" y2="96.05"/>
			<line class="st37" x1="179.74" y1="95.62" x2="177.57" y2="95.62"/>
			<line class="st37" x1="179.58" y1="95.19" x2="177.73" y2="95.19"/>
			<line class="st37" x1="179.32" y1="94.76" x2="177.99" y2="94.76"/>
		</g>
		<g>
			<path class="st37" d="M180.14,112.65l-0.1-5.16c0,0-0.17-1.28-1.1-1.28c-0.93,0-1.07,1.47-1.07,1.47l0.16,4.97H180.14z"/>
			<rect x="177.83" y="112.65" class="st37" width="2.52" height="0.37"/>
			<line class="st37" x1="180.05" y1="108.23" x2="177.89" y2="108.23"/>
			<line class="st37" x1="180.05" y1="107.77" x2="177.89" y2="107.77"/>
			<line class="st37" x1="180.05" y1="107.34" x2="177.89" y2="107.34"/>
			<line class="st37" x1="179.89" y1="106.91" x2="178.05" y2="106.91"/>
			<line class="st37" x1="179.63" y1="106.48" x2="178.31" y2="106.48"/>
		</g>
		<g>
			<path class="st37" d="M185.98,111.93l-0.1-5.16c0,0-0.17-1.28-1.1-1.28s-1.07,1.47-1.07,1.47l0.16,4.97H185.98z"/>
			<rect x="183.66" y="111.93" class="st37" width="2.52" height="0.37"/>
			<line class="st37" x1="185.89" y1="107.51" x2="183.72" y2="107.51"/>
			<line class="st37" x1="185.89" y1="107.05" x2="183.72" y2="107.05"/>
			<line class="st37" x1="185.89" y1="106.62" x2="183.72" y2="106.62"/>
			<line class="st37" x1="185.73" y1="106.19" x2="183.88" y2="106.19"/>
			<line class="st37" x1="185.47" y1="105.77" x2="184.14" y2="105.77"/>
		</g>
		<path class="st37" d="M167.22,75.26l-3.79-4.45l-4.39,4.45C159.04,75.26,165.05,74.54,167.22,75.26z"/>
		<path class="st37" d="M166.8,76.22l0.9,29.97c0,0-6.79,0.56-9.68-0.43l-0.24-27.2l0.66-0.54l-0.12-1.8
			C158.32,76.22,164.99,75.56,166.8,76.22z"/>
		<polyline class="st37" points="161.18,73.2 156.48,74.48 157.36,75.56 154.65,75.93 157.78,77.49 75.06,73.39 		"/>
		<polygon class="st37" points="162.3,76.9 162.3,80.14 159.97,80.14 159.97,77.03 		"/>
		<rect x="161.38" y="77.3" class="st37" width="0.65" height="2.39"/>
		<polygon class="st37" points="161,77.3 161,79.77 160.33,79.77 160.33,77.42 		"/>
		<polygon class="st37" points="162.3,84.82 162.3,89.6 159.97,89.6 159.97,85.01 		"/>
		<rect x="161.38" y="85.42" class="st37" width="0.65" height="3.53"/>
		<polygon class="st37" points="161,85.42 161,89.06 160.33,89.06 160.33,85.59 		"/>
		<polygon class="st37" points="162.3,96.24 162.3,101.02 159.97,101.02 160.07,96.12 		"/>
		<polygon class="st37" points="162.03,96.69 162.03,100.58 161.38,100.58 161.38,96.64 		"/>
		<rect x="160.33" y="96.64" class="st37" width="0.66" height="3.84"/>
		<polygon class="st37" points="154.92,78.34 154.92,80.14 149.45,79.99 149.45,78.19 		"/>
		<polyline class="st37" points="155.43,80.57 132,79.77 131.72,79.77 100.92,78.54 76.69,77.49 71.73,79.89 		"/>
		<path class="st37" d="M167.7,105.29c0,0-4.93,0.68-9.68-0.19"/>
		<path class="st37" d="M167.33,93.9c0,0-5.57,0.23-9.41-0.13"/>
		<path class="st37" d="M167.33,94.49c0,0-5.3,0.39-9.41-0.27"/>
		<polyline class="st37" points="175.35,64.99 168.15,63.99 166.95,63.99 161.04,65.43 		"/>
		<polyline class="st37" points="175.55,64.67 168.19,63.65 166.93,63.65 160.93,65.23 		"/>
		<polyline class="st37" points="175.83,64.38 167.53,63.25 160.55,64.95 		"/>
		<line class="st37" x1="168.15" y1="63.99" x2="168.47" y2="75.11"/>
		<polyline class="st37" points="166.95,63.99 167.41,75.02 167.22,75.26 167.89,75.11 		"/>
		<polyline class="st37" points="175.76,75.57 167.89,75.11 167.89,75.57 176.19,76.08 		"/>
		<line class="st37" x1="167.89" y1="75.57" x2="168.77" y2="114.67"/>
		<polyline class="st37" points="157.8,80.93 155.43,80.93 155.43,81.42 157.78,81.42 		"/>
		<polygon class="st37" points="157.25,78.54 157.25,80.93 155.43,80.93 155.43,78.5 		"/>
		<polygon class="st37" points="147.34,78.19 147.34,79.77 141.71,79.7 141.71,77.83 		"/>
		<polyline class="st37" points="141.71,77.83 141.39,77.74 141.39,77.49 147.56,77.83 147.56,78.11 147.34,78.19 		"/>
		<polygon class="st37" points="138.99,77.72 138.89,79.59 133.06,79.35 133.06,77.49 		"/>
		<polyline class="st37" points="133.06,77.49 132.79,77.29 132.79,77.09 139.42,77.49 139.42,77.66 138.99,77.72 		"/>
		<line class="st37" x1="137.33" y1="77.72" x2="137.29" y2="79.53"/>
		<line class="st37" x1="134.77" y1="77.55" x2="134.77" y2="79.46"/>
		<line class="st37" x1="145.79" y1="78.09" x2="145.79" y2="79.75"/>
		<line class="st37" x1="144.01" y1="77.97" x2="144.01" y2="79.73"/>
		<line class="st37" x1="153.29" y1="78.3" x2="153.29" y2="80.09"/>
		<line class="st37" x1="152.47" y1="78.27" x2="152.47" y2="80.07"/>
		<line class="st37" x1="151.63" y1="78.27" x2="151.63" y2="80.05"/>
		<polygon class="st37" points="129.66,77.23 129.66,79.14 124.9,78.89 124.9,77.04 		"/>
		<polygon class="st37" points="130.59,76.91 123.72,76.73 123.72,76.99 127.83,77.14 130.59,77.25 		"/>
		<line class="st37" x1="127.85" y1="79.01" x2="127.83" y2="77.14"/>
		<line class="st37" x1="126.83" y1="78.99" x2="126.83" y2="77.11"/>
		<line class="st37" x1="118.12" y1="78.85" x2="118.12" y2="76.62"/>
		<line class="st37" x1="115.43" y1="76.48" x2="115.36" y2="78.64"/>
		<polyline class="st37" points="113.41,76.38 112.93,76.37 112.93,76.02 120.42,76.45 120.42,76.73 113.41,76.38 113.41,78.56 
			118.24,78.77 120.1,78.85 120.1,76.73 		"/>
		<line class="st37" x1="108.75" y1="78.35" x2="108.79" y2="76.15"/>
		<polyline class="st37" points="105.29,75.98 105.22,78.18 76.53,77.26 76.66,74.09 71.99,77.11 70.44,77.06 75.32,74.04 
			158.42,77.73 		"/>
		<line class="st37" x1="73.67" y1="123.92" x2="76.69" y2="77.49"/>
		<path class="st37" d="M75.27,91.38l0.29-6.85c0,0,0.09-2.55-0.2-2.47c-0.29,0.07-0.42,3.25-0.42,3.25l-0.33,6.07H75.27z"/>
		<path class="st37" d="M73.72,91.29l0.29-6.51c0,0,0.09-2.42-0.2-2.35c-0.29,0.07-0.42,3.09-0.42,3.09l-0.33,5.77H73.72z"/>
		<path class="st37" d="M72.39,91.38l0.29-6.13c0,0,0.09-2.28-0.2-2.21c-0.29,0.07-0.42,2.91-0.42,2.91l-0.33,5.43H72.39z"/>
		<path class="st37" d="M72.97,121.51l0.36-7c0,0,0.05-1.86-0.36-1.91c-0.41-0.05-0.45,3.18-0.45,3.18l-0.29,5.18L72.97,121.51z"/>
		<path class="st37" d="M71.82,120.24l0.41-6.19c0,0,0.17-2.01-0.2-2.17s-0.35,3.06-0.35,3.06l-0.26,4.95L71.82,120.24z"/>
		<path class="st37" d="M70.98,119.09l0.43-6.5c0,0,0.1-1.91-0.22-2.01c-0.31-0.1-0.45,3.68-0.45,3.68l-0.24,4.2L70.98,119.09z"/>
		<path class="st37" d="M74.49,105.46l0.41-6.64c0,0,0.22-2.51-0.14-2.51c-0.36-0.01-0.55,4.65-0.55,4.65l-0.18,4.92l0.47,0.56
			V105.46z"/>
		<path class="st37" d="M72.93,105.15l0.46-6.47c0,0,0.14-2.89-0.23-2.94c-0.37-0.05-0.42,3.27-0.42,3.27l-0.31,5.78L72.93,105.15z"
			/>
		<path class="st37" d="M71.43,104.36l0.45-6.34c0,0,0.14-2.14-0.1-2.28s-0.35,1.96-0.35,1.96l-0.3,6.21L71.43,104.36z"/>
		<path class="st37" d="M84.96,122.82v-7.16c0,0-0.12-1.79-2.06-1.6s-2.28,2.52-2.28,2.52v6.66L84.96,122.82z"/>
		<path class="st37" d="M96.93,121.66v-6.63c0,0-0.02-1.99-1.71-1.79c-1.7,0.19-2.13,1.52-2.23,2.82c-0.1,1.3-0.18,6-0.18,6
			L96.93,121.66z"/>
		<path class="st37" d="M108.04,120.58l0.17-6.53c0,0,0.18-1.83-1.56-1.78c-1.74,0.05-2.32,1.75-2.32,2.81s-0.08,5.87-0.08,5.87
			L108.04,120.58z"/>
		<path class="st37" d="M118.64,119.55l0.17-5.73c0,0,0.1-2.23-1.56-2.18s-1.88,1.75-1.94,2.91c-0.06,1.16-0.15,5.34-0.15,5.34
			L118.64,119.55z"/>
		<path class="st37" d="M128.77,118.56l-0.19-6.59c0,0-0.09-1.6-1.84-1.12s-1.6,2.91-1.6,4.36c0,1.45,0,3.69,0,3.69L128.77,118.56z"
			/>
		<polyline class="st37" points="172.92,51.61 170.89,50.1 169.11,51.08 165.84,51.29 165.77,51.28 163.8,50.73 162.22,52.49 
			163.08,52.21 163.37,52.12 165.38,51.47 163.97,51.29 163.18,52.16 		"/>
		<polyline class="st37" points="172.91,52.49 168.96,51.79 165.77,51.97 162.53,53.35 		"/>
		<path class="st37" d="M167.78,46.86c0,0,1.23,0.69,0.92,4.24"/>
		<path class="st37" d="M166.97,46.86c0,0-1.56,0.53-1.14,4.43"/>
		<polygon class="st37" points="171.74,51.37 170.77,50.61 169.97,51.1 		"/>
		<path class="st37" d="M172.02,61.6l-0.28-7.89c0,0-0.52-1.15-1.3-1.13c-0.78,0.01-1.19,0.52-1.17,1.77
			c0.02,1.25,0.22,6.89,0.22,6.89L172.02,61.6z"/>
		<path class="st37" d="M166,61.33l-0.41-7.61c0,0-0.35-1.21-1.17-0.7c-0.82,0.51-0.94,1.92-0.84,2.66c0.1,0.74,0.39,6.26,0.39,6.26
			L166,61.33z"/>
		<line class="st37" x1="172" y1="61.21" x2="169.49" y2="60.89"/>
		<line class="st37" x1="172" y1="60.79" x2="169.49" y2="60.46"/>
		<line class="st37" x1="172" y1="60.46" x2="169.49" y2="60.14"/>
		<line class="st37" x1="172" y1="60.06" x2="169.49" y2="59.74"/>
		<line class="st37" x1="172" y1="59.74" x2="169.49" y2="59.42"/>
		<line class="st37" x1="172" y1="59.31" x2="169.49" y2="58.99"/>
		<line class="st37" x1="172" y1="58.77" x2="169.49" y2="58.45"/>
		<line class="st37" x1="171.9" y1="58.36" x2="169.39" y2="58.04"/>
		<line class="st37" x1="171.86" y1="57.94" x2="169.35" y2="57.62"/>
		<line class="st37" x1="171.86" y1="57.53" x2="169.35" y2="57.21"/>
		<line class="st37" x1="171.86" y1="57.12" x2="169.35" y2="56.8"/>
		<line class="st37" x1="171.86" y1="56.7" x2="169.35" y2="56.38"/>
		<line class="st37" x1="171.86" y1="56.29" x2="169.35" y2="55.97"/>
		<line class="st37" x1="171.86" y1="55.84" x2="169.35" y2="55.52"/>
		<line class="st37" x1="171.79" y1="55.43" x2="169.28" y2="55.11"/>
		<line class="st37" x1="171.79" y1="55" x2="169.28" y2="54.68"/>
		<line class="st37" x1="171.79" y1="54.6" x2="169.28" y2="54.28"/>
		<line class="st37" x1="171.79" y1="54.18" x2="169.28" y2="53.86"/>
		<line class="st37" x1="171.79" y1="53.82" x2="169.28" y2="53.5"/>
		<line class="st37" x1="171.57" y1="53.35" x2="169.5" y2="53.03"/>
		<line class="st37" x1="166" y1="60.89" x2="163.96" y2="61.47"/>
		<line class="st37" x1="166" y1="60.49" x2="163.96" y2="61.08"/>
		<line class="st37" x1="166" y1="60.06" x2="163.96" y2="60.65"/>
		<line class="st37" x1="165.91" y1="59.6" x2="163.87" y2="60.19"/>
		<line class="st37" x1="165.91" y1="59.09" x2="163.87" y2="59.68"/>
		<line class="st37" x1="165.88" y1="58.72" x2="163.83" y2="59.3"/>
		<line class="st37" x1="165.88" y1="58.33" x2="163.83" y2="58.92"/>
		<line class="st37" x1="165.88" y1="57.89" x2="163.83" y2="58.48"/>
		<line class="st37" x1="165.81" y1="57.43" x2="163.76" y2="58.01"/>
		<line class="st37" x1="165.77" y1="57.02" x2="163.72" y2="57.61"/>
		<line class="st37" x1="165.73" y1="56.61" x2="163.68" y2="57.2"/>
		<line class="st37" x1="165.69" y1="56.22" x2="163.64" y2="56.81"/>
		<line class="st37" x1="165.69" y1="55.75" x2="163.64" y2="56.34"/>
		<line class="st37" x1="165.69" y1="55.37" x2="163.64" y2="55.96"/>
		<line class="st37" x1="165.69" y1="54.85" x2="163.64" y2="55.44"/>
		<line class="st37" x1="165.61" y1="54.47" x2="163.56" y2="55.06"/>
		<line class="st37" x1="165.61" y1="54.07" x2="163.56" y2="54.65"/>
		<line class="st37" x1="165.61" y1="53.66" x2="163.68" y2="54.25"/>
		<line class="st37" x1="165.46" y1="53.25" x2="163.76" y2="53.83"/>
		<polyline class="st37" points="168.96,51.79 169.09,61.08 166.37,61.21 165.77,51.97 		"/>
		<polygon class="st37" points="172.19,63.25 172.19,61.95 169.5,61.69 169.58,62.87 		"/>
		<polyline class="st37" points="165.91,62.97 165.91,61.84 163.96,62.4 163.96,63.44 167.43,62.64 169.28,62.87 169.09,61.6 
			166.28,61.69 166.28,62.87 		"/>
		<line class="st37" x1="167.53" y1="63.25" x2="167.43" y2="62.64"/>
		<polyline class="st37" points="101.24,75.19 100.64,76.99 99.37,121.42 		"/>
		<polyline class="st37" points="132.23,76.56 131.66,78.19 131.52,118.3 		"/>
		<path class="st37" d="M167.58,107.13c0,0-5.16,0.68-9.57-0.43"/>
		<line class="st37" x1="160.02" y1="115.53" x2="159.74" y2="107.13"/>
		<line class="st37" x1="165.09" y1="107.34" x2="165.29" y2="115.01"/>
		<path class="st37" d="M137.66,117.7l0.11-6.19c0,0-0.09-1.65-1.52-1.5c-0.09,0.01-0.17,0.03-0.25,0.05
			c-1.21,0.36-1.44,2.23-1.44,2.23l-0.24,5.73l2.9-0.28L137.66,117.7z"/>
		<path class="st37" d="M146.13,116.88v-6.11c0,0-0.47-1.58-1.62-1.36c-1.14,0.22-1.23,1.5-1.23,2.69s-0.07,5.05-0.07,5.05
			L146.13,116.88z"/>
		<path class="st37" d="M153.85,116.13v-5.96c0,0-0.04-1.7-1.27-1.62c-1.23,0.08-1.46,2.16-1.42,2.63c0.04,0.48,0,5.21,0,5.21
			L153.85,116.13z"/>
		<path class="st37" d="M191.33,112.43v-6.23c0,0-0.07-0.93-0.98-0.93s-1.07,1.38-1.04,2c0.03,0.62,0,5.38,0,5.38l1.63-0.13
			L191.33,112.43z"/>
		<path class="st37" d="M190.94,112.52l-0.07-6c0,0,0.15-0.97-0.52-1.25"/>
		<path class="st37" d="M196.17,112.01v-5.82c0,0-0.06-1.32-0.98-1.17c-0.91,0.15-0.76,1.81-0.76,1.81l0.19,5.32L196.17,112.01z"/>
		<path class="st37" d="M201.26,110.17v-3.98c0,0,0.18-1.72-1.01-1.69c-1.19,0.03-0.94,2.12-0.94,2.12l-0.02,3.74L201.26,110.17z"/>
		<path class="st37" d="M205.82,111.07l-0.18-5.8c0,0-0.04-1.31-0.83-1.19c-0.79,0.12-0.72,1.55-0.74,1.83c-0.02,0.27,0,5.33,0,5.33
			L205.82,111.07z"/>
		<path class="st37" d="M210.56,110.62l-0.18-5.8c0,0-0.04-1.31-0.83-1.19c-0.79,0.12-0.72,1.55-0.74,1.83c-0.02,0.27,0,5.33,0,5.33
			L210.56,110.62z"/>
		<path class="st37" d="M214.74,108.71l-0.38-3.89c0,0-0.12-1.68-0.91-1.58s-0.58,2.04-0.58,2.04l0.27,3.58L214.74,108.71z"/>
		<line class="st37" x1="212.48" y1="86.75" x2="212.48" y2="90.21"/>
		<polyline class="st37" points="213.06,86.82 213.06,87.95 213.06,90.18 		"/>
		<line class="st37" x1="211.93" y1="87.94" x2="213.06" y2="87.95"/>
		<line class="st37" x1="211.97" y1="89.12" x2="213.01" y2="89.12"/>
		<line class="st37" x1="208.96" y1="86.82" x2="209.02" y2="90.18"/>
		<line class="st37" x1="208.28" y1="86.75" x2="208.28" y2="90.21"/>
		<line class="st37" x1="207.81" y1="89.19" x2="209.01" y2="89.19"/>
		<line class="st37" x1="207.81" y1="87.84" x2="208.96" y2="87.84"/>
		<line class="st37" x1="204.26" y1="86.82" x2="204.34" y2="90.21"/>
		<line class="st37" x1="203.65" y1="86.82" x2="203.75" y2="90.18"/>
		<line class="st37" x1="204.26" y1="89.12" x2="203.45" y2="89.12"/>
		<line class="st37" x1="204.26" y1="87.75" x2="203.31" y2="87.75"/>
		<rect x="155.52" y="85.96" class="st37" width="1.74" height="3.96"/>
		<rect x="155.3" y="89.92" class="st37" width="2.25" height="0.48"/>
		<polygon class="st37" points="157.44,96.93 157.44,101.33 155.73,101.33 155.61,96.93 		"/>
		<polygon class="st37" points="157.78,101.4 155.4,101.4 155.4,102.17 157.68,102.07 		"/>
		<polyline class="st37" points="164.03,115.14 163.9,110.95 162.66,110.95 162.8,115.26 		"/>
		<path class="st37" d="M159.74,108.22c0,0-1.33,0.25-1.3,2.07s0,5.39,0,5.39"/>
		<line class="st37" x1="214.87" y1="82.4" x2="176.36" y2="81.29"/>
		<line class="st37" x1="214.87" y1="82.71" x2="176.38" y2="81.81"/>
		<line class="st37" x1="183.48" y1="86.5" x2="183.6" y2="90.86"/>
		<line class="st37" x1="185.04" y1="87.44" x2="182.96" y2="87.44"/>
		<line class="st37" x1="179.77" y1="97.87" x2="177.57" y2="97.93"/>
		<line class="st37" x1="179.77" y1="97.43" x2="177.57" y2="97.49"/>
		<line class="st37" x1="179.77" y1="96.87" x2="177.57" y2="96.93"/>
		<line class="st37" x1="151.81" y1="86.03" x2="151.81" y2="91.36"/>
		<line class="st37" x1="153.49" y1="89.3" x2="151.08" y2="89.3"/>
		<line class="st37" x1="153.52" y1="87.48" x2="151" y2="87.48"/>
		<line class="st37" x1="144.29" y1="85.96" x2="144.29" y2="91.14"/>
		<line class="st37" x1="145.85" y1="89.06" x2="143.29" y2="89.06"/>
		<line class="st37" x1="145.81" y1="87.48" x2="143.22" y2="87.48"/>
		<line class="st37" x1="135.84" y1="86.03" x2="135.84" y2="91.14"/>
		<line class="st37" x1="137.48" y1="89.6" x2="134.91" y2="89.6"/>
		<line class="st37" x1="137.48" y1="87.94" x2="134.72" y2="87.94"/>
		<line class="st37" x1="126.92" y1="85.96" x2="126.92" y2="91.14"/>
		<line class="st37" x1="128.57" y1="89.3" x2="125.62" y2="89.3"/>
		<line class="st37" x1="128.57" y1="87.48" x2="125.62" y2="87.48"/>
		<line class="st37" x1="144.32" y1="98.14" x2="144.32" y2="103.33"/>
		<line class="st37" x1="145.84" y1="100.74" x2="143.29" y2="100.74"/>
		<line class="st37" x1="126.65" y1="98.33" x2="126.51" y2="103.66"/>
		<line class="st37" x1="128.65" y1="101.64" x2="125.62" y2="101.79"/>
		<line class="st37" x1="128.57" y1="99.67" x2="125.49" y2="99.78"/>
		<line class="st37" x1="106.65" y1="85.52" x2="106.65" y2="91.27"/>
		<line class="st37" x1="108.54" y1="89.07" x2="105.41" y2="89.07"/>
		<line class="st37" x1="108.54" y1="87.02" x2="105.16" y2="87.02"/>
		<line class="st37" x1="95.8" y1="85.26" x2="95.73" y2="91.91"/>
		<line class="st37" x1="98.06" y1="89.07" x2="94.13" y2="89.07"/>
		<line class="st37" x1="97.94" y1="86.98" x2="94.05" y2="86.98"/>
		<line class="st37" x1="95.48" y1="99.38" x2="95.29" y2="106.15"/>
		<line class="st37" x1="97.9" y1="103.22" x2="93.77" y2="103.33"/>
		<line class="st37" x1="97.69" y1="101" x2="93.84" y2="101.23"/>
		<line class="st37" x1="83.53" y1="99.38" x2="83.46" y2="105.91"/>
		<line class="st37" x1="85.58" y1="103.66" x2="81.67" y2="103.66"/>
		<line class="st37" x1="85.47" y1="101.64" x2="81.39" y2="101.64"/>
		<line class="st37" x1="107.49" y1="112.43" x2="105.45" y2="112.65"/>
		<line class="st37" x1="108.08" y1="113.11" x2="104.83" y2="113.31"/>
		<line class="st37" x1="108.18" y1="113.85" x2="104.47" y2="114.11"/>
		<line class="st37" x1="108.2" y1="114.59" x2="104.34" y2="114.85"/>
		<line class="st37" x1="118.24" y1="112" x2="116.01" y2="112.16"/>
		<line class="st37" x1="118.49" y1="112.33" x2="115.76" y2="112.52"/>
		<line class="st37" x1="118.64" y1="112.68" x2="115.61" y2="112.83"/>
		<line class="st37" x1="118.75" y1="113.1" x2="115.48" y2="113.23"/>
		<polyline class="st37" points="118.75,113.54 116.9,113.59 115.3,113.64 		"/>
		<line class="st37" x1="116.59" y1="119.67" x2="116.9" y2="113.59"/>
		<line class="st37" x1="118.75" y1="115.2" x2="115.28" y2="115.35"/>
		<line class="st37" x1="118.72" y1="116.97" x2="115.28" y2="117.3"/>
		<line class="st37" x1="128.04" y1="110.97" x2="126.19" y2="111.11"/>
		<line class="st37" x1="128.38" y1="111.35" x2="125.74" y2="111.56"/>
		<line class="st37" x1="128.53" y1="111.72" x2="125.51" y2="111.97"/>
		<line class="st37" x1="128.53" y1="112.13" x2="125.35" y2="112.4"/>
		<polyline class="st37" points="128.58,112.53 126.66,112.71 125.25,112.84 		"/>
		<line class="st37" x1="126.53" y1="118.78" x2="126.66" y2="112.71"/>
		<line class="st37" x1="128.04" y1="118.59" x2="128.04" y2="112.68"/>
		<line class="st37" x1="127.97" y1="114.22" x2="125.13" y2="114.5"/>
		<line class="st37" x1="127.97" y1="115.99" x2="125.13" y2="116.29"/>
		<line class="st37" x1="153.85" y1="110.48" x2="151.17" y2="110.75"/>
		<line class="st37" x1="153.81" y1="109.83" x2="151.3" y2="110.01"/>
		<polyline class="st37" points="153.7,109.39 151.42,109.62 151.57,109.3 153.6,109.16 		"/>
		<line class="st37" x1="153.31" y1="108.78" x2="151.88" y2="108.87"/>
		<polyline class="st37" points="146.13,111.24 143.31,111.41 143.34,111.06 146.13,110.95 		"/>
		<line class="st37" x1="146.02" y1="110.48" x2="143.31" y2="110.61"/>
		<line class="st37" x1="143.57" y1="110.16" x2="145.86" y2="110.16"/>
		<line class="st37" x1="145.46" y1="109.68" x2="143.94" y2="109.68"/>
		<polygon class="st37" points="87.03,75.04 87.03,77.25 84.41,77.14 81.79,77.03 81.92,74.79 84.57,74.92 84.89,74.94 		"/>
		<polygon class="st37" points="99.8,75.78 97.98,75.64 92.03,75.19 92.03,77.49 99.8,77.8 		"/>
		<line class="st37" x1="97.92" y1="77.72" x2="97.98" y2="75.64"/>
		<line class="st37" x1="97.44" y1="77.7" x2="97.44" y2="75.6"/>
		<line class="st37" x1="94.37" y1="77.58" x2="94.44" y2="75.37"/>
		<polygon class="st37" points="176.88,79.41 179.15,79.47 179.22,81.09 176.88,80.98 		"/>
		<polygon class="st37" points="185.78,79.74 182.67,79.65 182.67,81.29 185.88,81.38 		"/>
		<polygon class="st37" points="190.84,80.02 187.46,79.87 187.53,81.38 190.98,81.38 		"/>
		<polygon class="st37" points="195.81,80.19 192.51,80.1 192.51,81.62 196.05,81.62 195.99,80.25 		"/>
		<polygon class="st37" points="200.73,80.48 197.41,80.36 197.41,81.72 200.73,81.81 		"/>
		<polygon class="st37" points="205.37,80.71 202.01,80.55 202.15,81.81 205.45,81.85 		"/>
		<polygon class="st37" points="209.5,80.98 206.78,80.88 206.78,81.9 209.5,81.99 		"/>
		<polygon class="st37" points="213.39,81.08 211.59,81.08 211.68,82.13 213.39,82.13 		"/>
		<line class="st37" x1="208.61" y1="80.98" x2="208.61" y2="81.96"/>
		<line class="st37" x1="207.62" y1="80.98" x2="207.62" y2="81.93"/>
		<line class="st37" x1="204.49" y1="80.67" x2="204.49" y2="81.85"/>
		<line class="st37" x1="203.52" y1="80.67" x2="203.65" y2="81.81"/>
		<line class="st37" x1="199.78" y1="80.44" x2="199.78" y2="81.81"/>
		<line class="st37" x1="198.98" y1="80.44" x2="198.98" y2="81.81"/>
		<line class="st37" x1="194.82" y1="80.16" x2="194.82" y2="81.62"/>
		<line class="st37" x1="193.85" y1="80.13" x2="193.85" y2="81.62"/>
		<line class="st37" x1="189.77" y1="81.38" x2="189.67" y2="79.97"/>
		<line class="st37" x1="188.75" y1="79.93" x2="188.84" y2="81.38"/>
		<line class="st37" x1="184.6" y1="79.71" x2="184.6" y2="81.35"/>
		<line class="st37" x1="183.84" y1="81.29" x2="183.84" y2="79.71"/>
		<line class="st37" x1="76.53" y1="77.26" x2="71.95" y2="79.24"/>
		<polyline class="st37" points="103.24,75.81 102.83,75.88 102.83,75.52 111.38,76.02 111.38,76.32 108.79,76.15 103.24,75.81 
			103.24,78.12 110.99,78.55 110.99,76.34 		"/>
		<path class="st37" d="M137.21,117.74l0.11-5.97c0,0,0.13-1.52-1.08-1.76"/>
		<path class="st37" d="M195.74,112.05v-5.98c0,0-0.13-0.95-0.54-1.05"/>
		<path class="st37" d="M209.55,103.63c0,0,0.53,0.48,0.53,1.38c0.01,0.91,0.16,5.64,0.16,5.64"/>
		<path class="st37" d="M204.82,104.08c0,0,0.45,0.36,0.49,1.36c0.04,1,0.14,5.69,0.14,5.69"/>
		<polyline class="st37" points="167.52,46.14 167.41,40.57 166.97,40.57 167.25,46.03 		"/>
		<polygon class="st37" points="168.13,41.62 168.13,42.15 166.37,41.79 166.37,41.3 		"/>
		<path class="st37" d="M167.41,40.57c0,0,0.06-0.33-0.09-0.37c-0.16-0.04-0.17-0.28-0.17-0.28s-0.09,0.24-0.17,0.27
			c-0.08,0.04,0,0.38,0,0.38"/>
		<path class="st37" d="M166.37,41.31c0,0-0.33-0.1-0.38,0.05s-0.29,0.14-0.29,0.14s0.23,0.11,0.25,0.19
			c0.03,0.08,0.37,0.04,0.37,0.04"/>
		<path class="st37" d="M168.1,41.66c0,0,0.33-0.1,0.38,0.05c0.05,0.15,0.29,0.14,0.29,0.14s-0.23,0.11-0.25,0.19
			c-0.03,0.08-0.37,0.04-0.37,0.04"/>
		<polyline class="st37" points="160.37,73.92 157.36,74.58 158.26,75.49 157.25,75.58 		"/>
		<path class="st37" d="M166.95,75.93c0,0-1.91-0.41-4.92-0.23c-3.01,0.18-4.2,0.33-4.2,0.33l-2.41,0.29"/>
		<line class="st37" x1="159.04" y1="75.26" x2="158.26" y2="75.49"/>
		<line class="st37" x1="167.7" y1="106.19" x2="167.7" y2="114.78"/>
		<line class="st37" x1="158.02" y1="105.77" x2="158.02" y2="115.68"/>
	</g>
	<g>
		<circle class="st39" cx="143.29" cy="143.17" r="129.6"/>
	</g>
	<g>
		<rect x="14.15" y="145.09" class="st14" width="258.29" height="34.47"/>
		<text transform="matrix(1 0 0 1 23.291 161.626)" class="st40 st41 st42 st43">lantiquaille.com</text>
	</g>
	<rect x="67.01" y="202.15" class="st14" width="149.59" height="22.39"/>
	<text transform="matrix(1 0 0 1 82.2427 211.4341)" class="st40 st44 st45 st46">lyon france</text>
</g>
</svg>
